<svg xmlns="http://www.w3.org/2000/svg" viewBox="0 0 1200 800"><defs><style>.cls-1{fill:#f6f6f6;}.cls-2{opacity:0.4;}.cls-3{fill:#5e5e5e;}</style></defs><g id="Layer_2" data-name="Layer 2"><g id="Background"><rect class="cls-1" x="200" y="-200" width="800" height="1200" transform="translate(200 1000) rotate(-90)"/><g class="cls-2"><path class="cls-3" d="M70.2,727.06a3.39,3.39,0,1,1-3.39,3.39A3.38,3.38,0,0,1,70.2,727.06Z"/><path class="cls-3" d="M70.2,763.53a3.39,3.39,0,1,1-3.39,3.39A3.38,3.38,0,0,1,70.2,763.53Z"/><path class="cls-3" d="M70.2,690.2a3.39,3.39,0,1,1-3.39,3.38A3.38,3.38,0,0,1,70.2,690.2Z"/><path class="cls-3" d="M70.2,654a3.39,3.39,0,1,1-3.39,3.39A3.38,3.38,0,0,1,70.2,654Z"/><path class="cls-3" d="M70.2,616.69a3.39,3.39,0,1,1-3.39,3.38A3.38,3.38,0,0,1,70.2,616.69Z"/><path class="cls-3" d="M70.2,580.31a3.39,3.39,0,1,1-3.39,3.39A3.38,3.38,0,0,1,70.2,580.31Z"/><path class="cls-3" d="M70.2,543.44a3.39,3.39,0,1,1-3.39,3.39A3.38,3.38,0,0,1,70.2,543.44Z"/><path class="cls-3" d="M70.2,507.26a3.39,3.39,0,1,1-3.39,3.38A3.38,3.38,0,0,1,70.2,507.26Z"/><path class="cls-3" d="M70.2,469.93a3.39,3.39,0,1,1-3.39,3.39A3.38,3.38,0,0,1,70.2,469.93Z"/><path class="cls-3" d="M70.2,433.51a3.39,3.39,0,1,1-3.39,3.39A3.38,3.38,0,0,1,70.2,433.51Z"/><path class="cls-3" d="M70.2,396.65A3.39,3.39,0,1,1,66.81,400,3.38,3.38,0,0,1,70.2,396.65Z"/><path class="cls-3" d="M70.2,360.46a3.39,3.39,0,1,1-3.39,3.39A3.38,3.38,0,0,1,70.2,360.46Z"/><path class="cls-3" d="M70.2,323.14a3.39,3.39,0,1,1-3.39,3.38A3.38,3.38,0,0,1,70.2,323.14Z"/><path class="cls-3" d="M70.2,287.1a3.39,3.39,0,1,1-3.39,3.39A3.38,3.38,0,0,1,70.2,287.1Z"/><path class="cls-3" d="M70.2,250.23a3.39,3.39,0,1,1-3.39,3.39A3.38,3.38,0,0,1,70.2,250.23Z"/><path class="cls-3" d="M70.2,214.05a3.39,3.39,0,1,1-3.39,3.39A3.38,3.38,0,0,1,70.2,214.05Z"/><path class="cls-3" d="M70.2,176.72a3.39,3.39,0,1,1-3.39,3.39A3.38,3.38,0,0,1,70.2,176.72Z"/><path class="cls-3" d="M70.2,140.07a3.39,3.39,0,1,1-3.39,3.39A3.38,3.38,0,0,1,70.2,140.07Z"/><path class="cls-3" d="M70.2,103.21a3.39,3.39,0,1,1-3.39,3.38A3.38,3.38,0,0,1,70.2,103.21Z"/><path class="cls-3" d="M70.2,67a3.39,3.39,0,1,1-3.39,3.39A3.38,3.38,0,0,1,70.2,67Z"/><path class="cls-3" d="M70.2,29.69a3.39,3.39,0,1,1-3.39,3.39A3.38,3.38,0,0,1,70.2,29.69Z"/><path class="cls-3" d="M33.33,727.06A3.39,3.39,0,1,1,30,730.45,3.39,3.39,0,0,1,33.33,727.06Z"/><path class="cls-3" d="M33.33,763.53A3.39,3.39,0,1,1,30,766.92,3.39,3.39,0,0,1,33.33,763.53Z"/><path class="cls-3" d="M33.33,690.2A3.39,3.39,0,1,1,30,693.58,3.38,3.38,0,0,1,33.33,690.2Z"/><path class="cls-3" d="M33.33,654A3.39,3.39,0,1,1,30,657.4,3.39,3.39,0,0,1,33.33,654Z"/><path class="cls-3" d="M33.33,616.69A3.39,3.39,0,1,1,30,620.07,3.38,3.38,0,0,1,33.33,616.69Z"/><path class="cls-3" d="M33.33,580.31A3.39,3.39,0,1,1,30,583.7,3.39,3.39,0,0,1,33.33,580.31Z"/><path class="cls-3" d="M33.33,543.44A3.39,3.39,0,1,1,30,546.83,3.39,3.39,0,0,1,33.33,543.44Z"/><path class="cls-3" d="M33.33,507.26A3.39,3.39,0,1,1,30,510.64,3.38,3.38,0,0,1,33.33,507.26Z"/><path class="cls-3" d="M33.33,469.93A3.39,3.39,0,1,1,30,473.32,3.39,3.39,0,0,1,33.33,469.93Z"/><path class="cls-3" d="M33.33,433.51A3.39,3.39,0,1,1,30,436.9,3.39,3.39,0,0,1,33.33,433.51Z"/><path class="cls-3" d="M33.33,396.65A3.39,3.39,0,1,1,30,400,3.38,3.38,0,0,1,33.33,396.65Z"/><path class="cls-3" d="M33.33,360.46A3.39,3.39,0,1,1,30,363.85,3.39,3.39,0,0,1,33.33,360.46Z"/><path class="cls-3" d="M33.33,323.14A3.39,3.39,0,1,1,30,326.52,3.38,3.38,0,0,1,33.33,323.14Z"/><path class="cls-3" d="M33.33,287.1A3.39,3.39,0,1,1,30,290.49,3.39,3.39,0,0,1,33.33,287.1Z"/><path class="cls-3" d="M33.33,250.23A3.39,3.39,0,1,1,30,253.62,3.39,3.39,0,0,1,33.33,250.23Z"/><path class="cls-3" d="M33.33,214.05A3.39,3.39,0,1,1,30,217.44,3.39,3.39,0,0,1,33.33,214.05Z"/><path class="cls-3" d="M33.33,176.72A3.39,3.39,0,1,1,30,180.11,3.39,3.39,0,0,1,33.33,176.72Z"/><path class="cls-3" d="M33.33,140.07A3.39,3.39,0,1,1,30,143.46,3.39,3.39,0,0,1,33.33,140.07Z"/><path class="cls-3" d="M33.33,103.21A3.39,3.39,0,1,1,30,106.59,3.38,3.38,0,0,1,33.33,103.21Z"/><path class="cls-3" d="M33.33,67A3.39,3.39,0,1,1,30,70.41,3.39,3.39,0,0,1,33.33,67Z"/><path class="cls-3" d="M33.33,29.69A3.39,3.39,0,1,1,30,33.08,3.39,3.39,0,0,1,33.33,29.69Z"/><path class="cls-3" d="M106.67,727.06a3.39,3.39,0,1,1-3.39,3.39A3.38,3.38,0,0,1,106.67,727.06Z"/><path class="cls-3" d="M106.67,763.53a3.39,3.39,0,1,1-3.39,3.39A3.38,3.38,0,0,1,106.67,763.53Z"/><path class="cls-3" d="M106.67,690.2a3.39,3.39,0,1,1-3.39,3.38A3.38,3.38,0,0,1,106.67,690.2Z"/><path class="cls-3" d="M106.67,654a3.39,3.39,0,1,1-3.39,3.39A3.38,3.38,0,0,1,106.67,654Z"/><path class="cls-3" d="M106.67,616.69a3.39,3.39,0,1,1-3.39,3.38A3.38,3.38,0,0,1,106.67,616.69Z"/><path class="cls-3" d="M106.67,580.31a3.39,3.39,0,1,1-3.39,3.39A3.38,3.38,0,0,1,106.67,580.31Z"/><path class="cls-3" d="M106.67,543.44a3.39,3.39,0,1,1-3.39,3.39A3.38,3.38,0,0,1,106.67,543.44Z"/><path class="cls-3" d="M106.67,507.26a3.39,3.39,0,1,1-3.39,3.38A3.38,3.38,0,0,1,106.67,507.26Z"/><path class="cls-3" d="M106.67,469.93a3.39,3.39,0,1,1-3.39,3.39A3.38,3.38,0,0,1,106.67,469.93Z"/><path class="cls-3" d="M106.67,433.51a3.39,3.39,0,1,1-3.39,3.39A3.38,3.38,0,0,1,106.67,433.51Z"/><path class="cls-3" d="M106.67,396.65a3.39,3.39,0,1,1-3.39,3.38A3.38,3.38,0,0,1,106.67,396.65Z"/><path class="cls-3" d="M106.67,360.46a3.39,3.39,0,1,1-3.39,3.39A3.38,3.38,0,0,1,106.67,360.46Z"/><path class="cls-3" d="M106.67,323.14a3.39,3.39,0,1,1-3.39,3.38A3.38,3.38,0,0,1,106.67,323.14Z"/><path class="cls-3" d="M106.67,287.1a3.39,3.39,0,1,1-3.39,3.39A3.38,3.38,0,0,1,106.67,287.1Z"/><path class="cls-3" d="M106.67,250.23a3.39,3.39,0,1,1-3.39,3.39A3.38,3.38,0,0,1,106.67,250.23Z"/><path class="cls-3" d="M106.67,214.05a3.39,3.39,0,1,1-3.39,3.39A3.38,3.38,0,0,1,106.67,214.05Z"/><path class="cls-3" d="M106.67,176.72a3.39,3.39,0,1,1-3.39,3.39A3.38,3.38,0,0,1,106.67,176.72Z"/><path class="cls-3" d="M106.67,140.07a3.39,3.39,0,1,1-3.39,3.39A3.38,3.38,0,0,1,106.67,140.07Z"/><path class="cls-3" d="M106.67,103.21a3.39,3.39,0,1,1-3.39,3.38A3.38,3.38,0,0,1,106.67,103.21Z"/><path class="cls-3" d="M106.67,67a3.39,3.39,0,1,1-3.39,3.39A3.38,3.38,0,0,1,106.67,67Z"/><path class="cls-3" d="M106.67,29.69a3.39,3.39,0,1,1-3.39,3.39A3.38,3.38,0,0,1,106.67,29.69Z"/><path class="cls-3" d="M143.43,727.06a3.39,3.39,0,1,1-3.39,3.39A3.39,3.39,0,0,1,143.43,727.06Z"/><path class="cls-3" d="M143.43,763.53a3.39,3.39,0,1,1-3.39,3.39A3.39,3.39,0,0,1,143.43,763.53Z"/><path class="cls-3" d="M143.43,690.2a3.39,3.39,0,1,1-3.39,3.38A3.38,3.38,0,0,1,143.43,690.2Z"/><path class="cls-3" d="M143.43,654A3.39,3.39,0,1,1,140,657.4,3.39,3.39,0,0,1,143.43,654Z"/><path class="cls-3" d="M143.43,616.69a3.39,3.39,0,1,1-3.39,3.38A3.38,3.38,0,0,1,143.43,616.69Z"/><path class="cls-3" d="M143.43,580.31A3.39,3.39,0,1,1,140,583.7,3.39,3.39,0,0,1,143.43,580.31Z"/><path class="cls-3" d="M143.43,543.44a3.39,3.39,0,1,1-3.39,3.39A3.39,3.39,0,0,1,143.43,543.44Z"/><path class="cls-3" d="M143.43,507.26a3.39,3.39,0,1,1-3.39,3.38A3.38,3.38,0,0,1,143.43,507.26Z"/><path class="cls-3" d="M143.43,469.93a3.39,3.39,0,1,1-3.39,3.39A3.39,3.39,0,0,1,143.43,469.93Z"/><path class="cls-3" d="M143.43,433.51A3.39,3.39,0,1,1,140,436.9,3.39,3.39,0,0,1,143.43,433.51Z"/><path class="cls-3" d="M143.43,396.65A3.39,3.39,0,1,1,140,400,3.38,3.38,0,0,1,143.43,396.65Z"/><path class="cls-3" d="M143.43,360.46a3.39,3.39,0,1,1-3.39,3.39A3.39,3.39,0,0,1,143.43,360.46Z"/><path class="cls-3" d="M143.43,323.14a3.39,3.39,0,1,1-3.39,3.38A3.38,3.38,0,0,1,143.43,323.14Z"/><path class="cls-3" d="M143.43,287.1a3.39,3.39,0,1,1-3.39,3.39A3.39,3.39,0,0,1,143.43,287.1Z"/><path class="cls-3" d="M143.43,250.23a3.39,3.39,0,1,1-3.39,3.39A3.39,3.39,0,0,1,143.43,250.23Z"/><path class="cls-3" d="M143.43,214.05a3.39,3.39,0,1,1-3.39,3.39A3.39,3.39,0,0,1,143.43,214.05Z"/><path class="cls-3" d="M143.43,176.72a3.39,3.39,0,1,1-3.39,3.39A3.39,3.39,0,0,1,143.43,176.72Z"/><path class="cls-3" d="M143.43,140.07a3.39,3.39,0,1,1-3.39,3.39A3.39,3.39,0,0,1,143.43,140.07Z"/><path class="cls-3" d="M143.43,103.21a3.39,3.39,0,1,1-3.39,3.38A3.38,3.38,0,0,1,143.43,103.21Z"/><path class="cls-3" d="M143.43,67A3.39,3.39,0,1,1,140,70.41,3.39,3.39,0,0,1,143.43,67Z"/><path class="cls-3" d="M143.43,29.69A3.39,3.39,0,1,1,140,33.08,3.39,3.39,0,0,1,143.43,29.69Z"/><path class="cls-3" d="M179.63,727.06a3.39,3.39,0,1,1-3.39,3.39A3.39,3.39,0,0,1,179.63,727.06Z"/><path class="cls-3" d="M179.63,763.53a3.39,3.39,0,1,1-3.39,3.39A3.39,3.39,0,0,1,179.63,763.53Z"/><path class="cls-3" d="M179.63,690.2a3.39,3.39,0,1,1-3.39,3.38A3.38,3.38,0,0,1,179.63,690.2Z"/><path class="cls-3" d="M179.63,654a3.39,3.39,0,1,1-3.39,3.39A3.39,3.39,0,0,1,179.63,654Z"/><path class="cls-3" d="M179.63,616.69a3.39,3.39,0,1,1-3.39,3.38A3.38,3.38,0,0,1,179.63,616.69Z"/><path class="cls-3" d="M179.63,580.31a3.39,3.39,0,1,1-3.39,3.39A3.39,3.39,0,0,1,179.63,580.31Z"/><path class="cls-3" d="M179.63,543.44a3.39,3.39,0,1,1-3.39,3.39A3.39,3.39,0,0,1,179.63,543.44Z"/><path class="cls-3" d="M179.63,507.26a3.39,3.39,0,1,1-3.39,3.38A3.38,3.38,0,0,1,179.63,507.26Z"/><path class="cls-3" d="M179.63,469.93a3.39,3.39,0,1,1-3.39,3.39A3.39,3.39,0,0,1,179.63,469.93Z"/><path class="cls-3" d="M179.63,433.51a3.39,3.39,0,1,1-3.39,3.39A3.39,3.39,0,0,1,179.63,433.51Z"/><path class="cls-3" d="M179.63,396.65a3.39,3.39,0,1,1-3.39,3.38A3.38,3.38,0,0,1,179.63,396.65Z"/><path class="cls-3" d="M179.63,360.46a3.39,3.39,0,1,1-3.39,3.39A3.39,3.39,0,0,1,179.63,360.46Z"/><path class="cls-3" d="M179.63,323.14a3.39,3.39,0,1,1-3.39,3.38A3.38,3.38,0,0,1,179.63,323.14Z"/><path class="cls-3" d="M179.63,287.1a3.39,3.39,0,1,1-3.39,3.39A3.39,3.39,0,0,1,179.63,287.1Z"/><path class="cls-3" d="M179.63,250.23a3.39,3.39,0,1,1-3.39,3.39A3.39,3.39,0,0,1,179.63,250.23Z"/><path class="cls-3" d="M179.63,214.05a3.39,3.39,0,1,1-3.39,3.39A3.39,3.39,0,0,1,179.63,214.05Z"/><path class="cls-3" d="M179.63,176.72a3.39,3.39,0,1,1-3.39,3.39A3.39,3.39,0,0,1,179.63,176.72Z"/><path class="cls-3" d="M179.63,140.07a3.39,3.39,0,1,1-3.39,3.39A3.39,3.39,0,0,1,179.63,140.07Z"/><path class="cls-3" d="M179.63,103.21a3.39,3.39,0,1,1-3.39,3.38A3.38,3.38,0,0,1,179.63,103.21Z"/><path class="cls-3" d="M179.63,67a3.39,3.39,0,1,1-3.39,3.39A3.39,3.39,0,0,1,179.63,67Z"/><path class="cls-3" d="M179.63,29.69a3.39,3.39,0,1,1-3.39,3.39A3.39,3.39,0,0,1,179.63,29.69Z"/><path class="cls-3" d="M216.37,727.06a3.39,3.39,0,1,1-3.39,3.39A3.39,3.39,0,0,1,216.37,727.06Z"/><path class="cls-3" d="M216.37,763.53a3.39,3.39,0,1,1-3.39,3.39A3.39,3.39,0,0,1,216.37,763.53Z"/><path class="cls-3" d="M216.37,690.2a3.39,3.39,0,1,1-3.39,3.38A3.38,3.38,0,0,1,216.37,690.2Z"/><path class="cls-3" d="M216.37,654A3.39,3.39,0,1,1,213,657.4,3.39,3.39,0,0,1,216.37,654Z"/><path class="cls-3" d="M216.37,616.69a3.39,3.39,0,1,1-3.39,3.38A3.38,3.38,0,0,1,216.37,616.69Z"/><path class="cls-3" d="M216.37,580.31A3.39,3.39,0,1,1,213,583.7,3.39,3.39,0,0,1,216.37,580.31Z"/><path class="cls-3" d="M216.37,543.44a3.39,3.39,0,1,1-3.39,3.39A3.39,3.39,0,0,1,216.37,543.44Z"/><path class="cls-3" d="M216.37,507.26a3.39,3.39,0,1,1-3.39,3.38A3.38,3.38,0,0,1,216.37,507.26Z"/><path class="cls-3" d="M216.37,469.93a3.39,3.39,0,1,1-3.39,3.39A3.39,3.39,0,0,1,216.37,469.93Z"/><path class="cls-3" d="M216.37,433.51A3.39,3.39,0,1,1,213,436.9,3.39,3.39,0,0,1,216.37,433.51Z"/><path class="cls-3" d="M216.37,396.65A3.39,3.39,0,1,1,213,400,3.38,3.38,0,0,1,216.37,396.65Z"/><path class="cls-3" d="M216.37,360.46a3.39,3.39,0,1,1-3.39,3.39A3.39,3.39,0,0,1,216.37,360.46Z"/><path class="cls-3" d="M216.37,323.14a3.39,3.39,0,1,1-3.39,3.38A3.38,3.38,0,0,1,216.37,323.14Z"/><path class="cls-3" d="M216.37,287.1a3.39,3.39,0,1,1-3.39,3.39A3.39,3.39,0,0,1,216.37,287.1Z"/><path class="cls-3" d="M216.37,250.23a3.39,3.39,0,1,1-3.39,3.39A3.39,3.39,0,0,1,216.37,250.23Z"/><path class="cls-3" d="M216.37,214.05a3.39,3.39,0,1,1-3.39,3.39A3.39,3.39,0,0,1,216.37,214.05Z"/><path class="cls-3" d="M216.37,176.72a3.39,3.39,0,1,1-3.39,3.39A3.39,3.39,0,0,1,216.37,176.72Z"/><path class="cls-3" d="M216.37,140.07a3.39,3.39,0,1,1-3.39,3.39A3.39,3.39,0,0,1,216.37,140.07Z"/><path class="cls-3" d="M216.37,103.21a3.39,3.39,0,1,1-3.39,3.38A3.38,3.38,0,0,1,216.37,103.21Z"/><path class="cls-3" d="M216.37,67A3.39,3.39,0,1,1,213,70.41,3.39,3.39,0,0,1,216.37,67Z"/><path class="cls-3" d="M216.37,29.69A3.39,3.39,0,1,1,213,33.08,3.39,3.39,0,0,1,216.37,29.69Z"/><path class="cls-3" d="M253,727.06a3.39,3.39,0,1,1-3.38,3.39A3.39,3.39,0,0,1,253,727.06Z"/><path class="cls-3" d="M253,763.53a3.39,3.39,0,1,1-3.38,3.39A3.39,3.39,0,0,1,253,763.53Z"/><path class="cls-3" d="M253,690.2a3.39,3.39,0,1,1-3.38,3.38A3.38,3.38,0,0,1,253,690.2Z"/><path class="cls-3" d="M253,654a3.39,3.39,0,1,1-3.38,3.39A3.39,3.39,0,0,1,253,654Z"/><path class="cls-3" d="M253,616.69a3.39,3.39,0,1,1-3.38,3.38A3.38,3.38,0,0,1,253,616.69Z"/><path class="cls-3" d="M253,580.31a3.39,3.39,0,1,1-3.38,3.39A3.39,3.39,0,0,1,253,580.31Z"/><path class="cls-3" d="M253,543.44a3.39,3.39,0,1,1-3.38,3.39A3.39,3.39,0,0,1,253,543.44Z"/><path class="cls-3" d="M253,507.26a3.39,3.39,0,1,1-3.38,3.38A3.38,3.38,0,0,1,253,507.26Z"/><path class="cls-3" d="M253,469.93a3.39,3.39,0,1,1-3.38,3.39A3.39,3.39,0,0,1,253,469.93Z"/><path class="cls-3" d="M253,433.51a3.39,3.39,0,1,1-3.38,3.39A3.39,3.39,0,0,1,253,433.51Z"/><path class="cls-3" d="M253,396.65a3.39,3.39,0,1,1-3.38,3.38A3.38,3.38,0,0,1,253,396.65Z"/><path class="cls-3" d="M253,360.46a3.39,3.39,0,1,1-3.38,3.39A3.39,3.39,0,0,1,253,360.46Z"/><path class="cls-3" d="M253,323.14a3.39,3.39,0,1,1-3.38,3.38A3.38,3.38,0,0,1,253,323.14Z"/><path class="cls-3" d="M253,287.1a3.39,3.39,0,1,1-3.38,3.39A3.39,3.39,0,0,1,253,287.1Z"/><path class="cls-3" d="M253,250.23a3.39,3.39,0,1,1-3.38,3.39A3.39,3.39,0,0,1,253,250.23Z"/><path class="cls-3" d="M253,214.05a3.39,3.39,0,1,1-3.38,3.39A3.39,3.39,0,0,1,253,214.05Z"/><path class="cls-3" d="M253,176.72a3.39,3.39,0,1,1-3.38,3.39A3.39,3.39,0,0,1,253,176.72Z"/><path class="cls-3" d="M253,140.07a3.39,3.39,0,1,1-3.38,3.39A3.39,3.39,0,0,1,253,140.07Z"/><path class="cls-3" d="M253,103.21a3.39,3.39,0,1,1-3.38,3.38A3.38,3.38,0,0,1,253,103.21Z"/><path class="cls-3" d="M253,67a3.39,3.39,0,1,1-3.38,3.39A3.39,3.39,0,0,1,253,67Z"/><path class="cls-3" d="M253,29.69a3.39,3.39,0,1,1-3.38,3.39A3.39,3.39,0,0,1,253,29.69Z"/><path class="cls-3" d="M290,727.06a3.39,3.39,0,1,1-3.38,3.39A3.39,3.39,0,0,1,290,727.06Z"/><path class="cls-3" d="M290,763.53a3.39,3.39,0,1,1-3.38,3.39A3.39,3.39,0,0,1,290,763.53Z"/><path class="cls-3" d="M290,690.2a3.39,3.39,0,1,1-3.38,3.38A3.38,3.38,0,0,1,290,690.2Z"/><path class="cls-3" d="M290,654a3.39,3.39,0,1,1-3.38,3.39A3.39,3.39,0,0,1,290,654Z"/><path class="cls-3" d="M290,616.69a3.39,3.39,0,1,1-3.38,3.38A3.38,3.38,0,0,1,290,616.69Z"/><path class="cls-3" d="M290,580.31a3.39,3.39,0,1,1-3.38,3.39A3.39,3.39,0,0,1,290,580.31Z"/><path class="cls-3" d="M290,543.44a3.39,3.39,0,1,1-3.38,3.39A3.39,3.39,0,0,1,290,543.44Z"/><path class="cls-3" d="M290,507.26a3.39,3.39,0,1,1-3.38,3.38A3.38,3.38,0,0,1,290,507.26Z"/><path class="cls-3" d="M290,469.93a3.39,3.39,0,1,1-3.38,3.39A3.39,3.39,0,0,1,290,469.93Z"/><path class="cls-3" d="M290,433.51a3.39,3.39,0,1,1-3.38,3.39A3.39,3.39,0,0,1,290,433.51Z"/><path class="cls-3" d="M290,396.65A3.39,3.39,0,1,1,286.6,400,3.38,3.38,0,0,1,290,396.65Z"/><path class="cls-3" d="M290,360.46a3.39,3.39,0,1,1-3.38,3.39A3.39,3.39,0,0,1,290,360.46Z"/><path class="cls-3" d="M290,323.14a3.39,3.39,0,1,1-3.38,3.38A3.38,3.38,0,0,1,290,323.14Z"/><path class="cls-3" d="M290,287.1a3.39,3.39,0,1,1-3.38,3.39A3.39,3.39,0,0,1,290,287.1Z"/><path class="cls-3" d="M290,250.23a3.39,3.39,0,1,1-3.38,3.39A3.39,3.39,0,0,1,290,250.23Z"/><path class="cls-3" d="M290,214.05a3.39,3.39,0,1,1-3.38,3.39A3.39,3.39,0,0,1,290,214.05Z"/><path class="cls-3" d="M290,176.72a3.39,3.39,0,1,1-3.38,3.39A3.39,3.39,0,0,1,290,176.72Z"/><path class="cls-3" d="M290,140.07a3.39,3.39,0,1,1-3.38,3.39A3.39,3.39,0,0,1,290,140.07Z"/><path class="cls-3" d="M290,103.21a3.39,3.39,0,1,1-3.38,3.38A3.38,3.38,0,0,1,290,103.21Z"/><path class="cls-3" d="M290,67a3.39,3.39,0,1,1-3.38,3.39A3.39,3.39,0,0,1,290,67Z"/><path class="cls-3" d="M290,29.69a3.39,3.39,0,1,1-3.38,3.39A3.39,3.39,0,0,1,290,29.69Z"/><path class="cls-3" d="M326.67,727.06a3.39,3.39,0,1,1-3.39,3.39A3.38,3.38,0,0,1,326.67,727.06Z"/><path class="cls-3" d="M326.67,763.53a3.39,3.39,0,1,1-3.39,3.39A3.38,3.38,0,0,1,326.67,763.53Z"/><path class="cls-3" d="M326.67,690.2a3.39,3.39,0,1,1-3.39,3.38A3.38,3.38,0,0,1,326.67,690.2Z"/><path class="cls-3" d="M326.67,654a3.39,3.39,0,1,1-3.39,3.39A3.38,3.38,0,0,1,326.67,654Z"/><path class="cls-3" d="M326.67,616.69a3.39,3.39,0,1,1-3.39,3.38A3.38,3.38,0,0,1,326.67,616.69Z"/><path class="cls-3" d="M326.67,580.31a3.39,3.39,0,1,1-3.39,3.39A3.38,3.38,0,0,1,326.67,580.31Z"/><path class="cls-3" d="M326.67,543.44a3.39,3.39,0,1,1-3.39,3.39A3.38,3.38,0,0,1,326.67,543.44Z"/><path class="cls-3" d="M326.67,507.26a3.39,3.39,0,1,1-3.39,3.38A3.38,3.38,0,0,1,326.67,507.26Z"/><path class="cls-3" d="M326.67,469.93a3.39,3.39,0,1,1-3.39,3.39A3.38,3.38,0,0,1,326.67,469.93Z"/><path class="cls-3" d="M326.67,433.51a3.39,3.39,0,1,1-3.39,3.39A3.38,3.38,0,0,1,326.67,433.51Z"/><path class="cls-3" d="M326.67,396.65a3.39,3.39,0,1,1-3.39,3.38A3.38,3.38,0,0,1,326.67,396.65Z"/><path class="cls-3" d="M326.67,360.46a3.39,3.39,0,1,1-3.39,3.39A3.38,3.38,0,0,1,326.67,360.46Z"/><path class="cls-3" d="M326.67,323.14a3.39,3.39,0,1,1-3.39,3.38A3.38,3.38,0,0,1,326.67,323.14Z"/><path class="cls-3" d="M326.67,287.1a3.39,3.39,0,1,1-3.39,3.39A3.38,3.38,0,0,1,326.67,287.1Z"/><path class="cls-3" d="M326.67,250.23a3.39,3.39,0,1,1-3.39,3.39A3.38,3.38,0,0,1,326.67,250.23Z"/><path class="cls-3" d="M326.67,214.05a3.39,3.39,0,1,1-3.39,3.39A3.38,3.38,0,0,1,326.67,214.05Z"/><path class="cls-3" d="M326.67,176.72a3.39,3.39,0,1,1-3.39,3.39A3.38,3.38,0,0,1,326.67,176.72Z"/><path class="cls-3" d="M326.67,140.07a3.39,3.39,0,1,1-3.39,3.39A3.38,3.38,0,0,1,326.67,140.07Z"/><path class="cls-3" d="M326.67,103.21a3.39,3.39,0,1,1-3.39,3.38A3.38,3.38,0,0,1,326.67,103.21Z"/><path class="cls-3" d="M326.67,67a3.39,3.39,0,1,1-3.39,3.39A3.38,3.38,0,0,1,326.67,67Z"/><path class="cls-3" d="M326.67,29.69a3.39,3.39,0,1,1-3.39,3.39A3.38,3.38,0,0,1,326.67,29.69Z"/><path class="cls-3" d="M363.25,727.06a3.39,3.39,0,1,1-3.39,3.39A3.39,3.39,0,0,1,363.25,727.06Z"/><path class="cls-3" d="M363.25,763.53a3.39,3.39,0,1,1-3.39,3.39A3.39,3.39,0,0,1,363.25,763.53Z"/><path class="cls-3" d="M363.25,690.2a3.39,3.39,0,1,1-3.39,3.38A3.38,3.38,0,0,1,363.25,690.2Z"/><path class="cls-3" d="M363.25,654a3.39,3.39,0,1,1-3.39,3.39A3.39,3.39,0,0,1,363.25,654Z"/><path class="cls-3" d="M363.25,616.69a3.39,3.39,0,1,1-3.39,3.38A3.38,3.38,0,0,1,363.25,616.69Z"/><path class="cls-3" d="M363.25,580.31a3.39,3.39,0,1,1-3.39,3.39A3.39,3.39,0,0,1,363.25,580.31Z"/><path class="cls-3" d="M363.25,543.44a3.39,3.39,0,1,1-3.39,3.39A3.39,3.39,0,0,1,363.25,543.44Z"/><path class="cls-3" d="M363.25,507.26a3.39,3.39,0,1,1-3.39,3.38A3.38,3.38,0,0,1,363.25,507.26Z"/><path class="cls-3" d="M363.25,469.93a3.39,3.39,0,1,1-3.39,3.39A3.39,3.39,0,0,1,363.25,469.93Z"/><path class="cls-3" d="M363.25,433.51a3.39,3.39,0,1,1-3.39,3.39A3.39,3.39,0,0,1,363.25,433.51Z"/><path class="cls-3" d="M363.25,396.65a3.39,3.39,0,1,1-3.39,3.38A3.38,3.38,0,0,1,363.25,396.65Z"/><path class="cls-3" d="M363.25,360.46a3.39,3.39,0,1,1-3.39,3.39A3.39,3.39,0,0,1,363.25,360.46Z"/><path class="cls-3" d="M363.25,323.14a3.39,3.39,0,1,1-3.39,3.38A3.38,3.38,0,0,1,363.25,323.14Z"/><path class="cls-3" d="M363.25,287.1a3.39,3.39,0,1,1-3.39,3.39A3.39,3.39,0,0,1,363.25,287.1Z"/><path class="cls-3" d="M363.25,250.23a3.39,3.39,0,1,1-3.39,3.39A3.39,3.39,0,0,1,363.25,250.23Z"/><path class="cls-3" d="M363.25,214.05a3.39,3.39,0,1,1-3.39,3.39A3.39,3.39,0,0,1,363.25,214.05Z"/><path class="cls-3" d="M363.25,176.72a3.39,3.39,0,1,1-3.39,3.39A3.39,3.39,0,0,1,363.25,176.72Z"/><path class="cls-3" d="M363.25,140.07a3.39,3.39,0,1,1-3.39,3.39A3.39,3.39,0,0,1,363.25,140.07Z"/><path class="cls-3" d="M363.25,103.21a3.39,3.39,0,1,1-3.39,3.38A3.38,3.38,0,0,1,363.25,103.21Z"/><path class="cls-3" d="M363.25,67a3.39,3.39,0,1,1-3.39,3.39A3.39,3.39,0,0,1,363.25,67Z"/><path class="cls-3" d="M363.25,29.69a3.39,3.39,0,1,1-3.39,3.39A3.39,3.39,0,0,1,363.25,29.69Z"/><path class="cls-3" d="M399.83,727.06a3.39,3.39,0,1,1-3.38,3.39A3.39,3.39,0,0,1,399.83,727.06Z"/><path class="cls-3" d="M399.83,763.53a3.39,3.39,0,1,1-3.38,3.39A3.39,3.39,0,0,1,399.83,763.53Z"/><path class="cls-3" d="M399.83,690.2a3.39,3.39,0,1,1-3.38,3.38A3.38,3.38,0,0,1,399.83,690.2Z"/><path class="cls-3" d="M399.83,654a3.39,3.39,0,1,1-3.38,3.39A3.39,3.39,0,0,1,399.83,654Z"/><path class="cls-3" d="M399.83,616.69a3.39,3.39,0,1,1-3.38,3.38A3.38,3.38,0,0,1,399.83,616.69Z"/><path class="cls-3" d="M399.83,580.31a3.39,3.39,0,1,1-3.38,3.39A3.39,3.39,0,0,1,399.83,580.31Z"/><path class="cls-3" d="M399.83,543.44a3.39,3.39,0,1,1-3.38,3.39A3.39,3.39,0,0,1,399.83,543.44Z"/><path class="cls-3" d="M399.83,507.26a3.39,3.39,0,1,1-3.38,3.38A3.38,3.38,0,0,1,399.83,507.26Z"/><path class="cls-3" d="M399.83,469.93a3.39,3.39,0,1,1-3.38,3.39A3.39,3.39,0,0,1,399.83,469.93Z"/><path class="cls-3" d="M399.83,433.51a3.39,3.39,0,1,1-3.38,3.39A3.39,3.39,0,0,1,399.83,433.51Z"/><path class="cls-3" d="M399.83,396.65a3.39,3.39,0,1,1-3.38,3.38A3.38,3.38,0,0,1,399.83,396.65Z"/><path class="cls-3" d="M399.83,360.46a3.39,3.39,0,1,1-3.38,3.39A3.39,3.39,0,0,1,399.83,360.46Z"/><path class="cls-3" d="M399.83,323.14a3.39,3.39,0,1,1-3.38,3.38A3.38,3.38,0,0,1,399.83,323.14Z"/><path class="cls-3" d="M399.83,287.1a3.39,3.39,0,1,1-3.38,3.39A3.39,3.39,0,0,1,399.83,287.1Z"/><path class="cls-3" d="M399.83,250.23a3.39,3.39,0,1,1-3.38,3.39A3.39,3.39,0,0,1,399.83,250.23Z"/><path class="cls-3" d="M399.83,214.05a3.39,3.39,0,1,1-3.38,3.39A3.39,3.39,0,0,1,399.83,214.05Z"/><path class="cls-3" d="M399.83,176.72a3.39,3.39,0,1,1-3.38,3.39A3.39,3.39,0,0,1,399.83,176.72Z"/><path class="cls-3" d="M399.83,140.07a3.39,3.39,0,1,1-3.38,3.39A3.39,3.39,0,0,1,399.83,140.07Z"/><path class="cls-3" d="M399.83,103.21a3.39,3.39,0,1,1-3.38,3.38A3.38,3.38,0,0,1,399.83,103.21Z"/><path class="cls-3" d="M399.83,67a3.39,3.39,0,1,1-3.38,3.39A3.39,3.39,0,0,1,399.83,67Z"/><path class="cls-3" d="M399.83,29.69a3.39,3.39,0,1,1-3.38,3.39A3.39,3.39,0,0,1,399.83,29.69Z"/><path class="cls-3" d="M436.3,727.06a3.39,3.39,0,1,1-3.38,3.39A3.39,3.39,0,0,1,436.3,727.06Z"/><path class="cls-3" d="M436.3,763.53a3.39,3.39,0,1,1-3.38,3.39A3.39,3.39,0,0,1,436.3,763.53Z"/><path class="cls-3" d="M436.3,690.2a3.39,3.39,0,1,1-3.38,3.38A3.38,3.38,0,0,1,436.3,690.2Z"/><path class="cls-3" d="M436.3,654a3.39,3.39,0,1,1-3.38,3.39A3.39,3.39,0,0,1,436.3,654Z"/><path class="cls-3" d="M436.3,616.69a3.39,3.39,0,1,1-3.38,3.38A3.38,3.38,0,0,1,436.3,616.69Z"/><path class="cls-3" d="M436.3,580.31a3.39,3.39,0,1,1-3.38,3.39A3.39,3.39,0,0,1,436.3,580.31Z"/><path class="cls-3" d="M436.3,543.44a3.39,3.39,0,1,1-3.38,3.39A3.39,3.39,0,0,1,436.3,543.44Z"/><path class="cls-3" d="M436.3,507.26a3.39,3.39,0,1,1-3.38,3.38A3.38,3.38,0,0,1,436.3,507.26Z"/><path class="cls-3" d="M436.3,469.93a3.39,3.39,0,1,1-3.38,3.39A3.39,3.39,0,0,1,436.3,469.93Z"/><path class="cls-3" d="M436.3,433.51a3.39,3.39,0,1,1-3.38,3.39A3.39,3.39,0,0,1,436.3,433.51Z"/><path class="cls-3" d="M436.3,396.65a3.39,3.39,0,1,1-3.38,3.38A3.38,3.38,0,0,1,436.3,396.65Z"/><path class="cls-3" d="M436.3,360.46a3.39,3.39,0,1,1-3.38,3.39A3.39,3.39,0,0,1,436.3,360.46Z"/><path class="cls-3" d="M436.3,323.14a3.39,3.39,0,1,1-3.38,3.38A3.38,3.38,0,0,1,436.3,323.14Z"/><path class="cls-3" d="M436.3,287.1a3.39,3.39,0,1,1-3.38,3.39A3.39,3.39,0,0,1,436.3,287.1Z"/><path class="cls-3" d="M436.3,250.23a3.39,3.39,0,1,1-3.38,3.39A3.39,3.39,0,0,1,436.3,250.23Z"/><path class="cls-3" d="M436.3,214.05a3.39,3.39,0,1,1-3.38,3.39A3.39,3.39,0,0,1,436.3,214.05Z"/><path class="cls-3" d="M436.3,176.72a3.39,3.39,0,1,1-3.38,3.39A3.39,3.39,0,0,1,436.3,176.72Z"/><path class="cls-3" d="M436.3,140.07a3.39,3.39,0,1,1-3.38,3.39A3.39,3.39,0,0,1,436.3,140.07Z"/><path class="cls-3" d="M436.3,103.21a3.39,3.39,0,1,1-3.38,3.38A3.38,3.38,0,0,1,436.3,103.21Z"/><path class="cls-3" d="M436.3,67a3.39,3.39,0,1,1-3.38,3.39A3.39,3.39,0,0,1,436.3,67Z"/><path class="cls-3" d="M436.3,29.69a3.39,3.39,0,1,1-3.38,3.39A3.39,3.39,0,0,1,436.3,29.69Z"/><path class="cls-3" d="M473.07,727.06a3.39,3.39,0,1,1-3.39,3.39A3.39,3.39,0,0,1,473.07,727.06Z"/><path class="cls-3" d="M473.07,763.53a3.39,3.39,0,1,1-3.39,3.39A3.39,3.39,0,0,1,473.07,763.53Z"/><path class="cls-3" d="M473.07,690.2a3.39,3.39,0,1,1-3.39,3.38A3.38,3.38,0,0,1,473.07,690.2Z"/><path class="cls-3" d="M473.07,654a3.39,3.39,0,1,1-3.39,3.39A3.39,3.39,0,0,1,473.07,654Z"/><path class="cls-3" d="M473.07,616.69a3.39,3.39,0,1,1-3.39,3.38A3.38,3.38,0,0,1,473.07,616.69Z"/><path class="cls-3" d="M473.07,580.31a3.39,3.39,0,1,1-3.39,3.39A3.39,3.39,0,0,1,473.07,580.31Z"/><path class="cls-3" d="M473.07,543.44a3.39,3.39,0,1,1-3.39,3.39A3.39,3.39,0,0,1,473.07,543.44Z"/><path class="cls-3" d="M473.07,507.26a3.39,3.39,0,1,1-3.39,3.38A3.38,3.38,0,0,1,473.07,507.26Z"/><path class="cls-3" d="M473.07,469.93a3.39,3.39,0,1,1-3.39,3.39A3.39,3.39,0,0,1,473.07,469.93Z"/><path class="cls-3" d="M473.07,433.51a3.39,3.39,0,1,1-3.39,3.39A3.39,3.39,0,0,1,473.07,433.51Z"/><path class="cls-3" d="M473.07,396.65a3.39,3.39,0,1,1-3.39,3.38A3.38,3.38,0,0,1,473.07,396.65Z"/><path class="cls-3" d="M473.07,360.46a3.39,3.39,0,1,1-3.39,3.39A3.39,3.39,0,0,1,473.07,360.46Z"/><path class="cls-3" d="M473.07,323.14a3.39,3.39,0,1,1-3.39,3.38A3.38,3.38,0,0,1,473.07,323.14Z"/><path class="cls-3" d="M473.07,287.1a3.39,3.39,0,1,1-3.39,3.39A3.39,3.39,0,0,1,473.07,287.1Z"/><path class="cls-3" d="M473.07,250.23a3.39,3.39,0,1,1-3.39,3.39A3.39,3.39,0,0,1,473.07,250.23Z"/><path class="cls-3" d="M473.07,214.05a3.39,3.39,0,1,1-3.39,3.39A3.39,3.39,0,0,1,473.07,214.05Z"/><path class="cls-3" d="M473.07,176.72a3.39,3.39,0,1,1-3.39,3.39A3.39,3.39,0,0,1,473.07,176.72Z"/><path class="cls-3" d="M473.07,140.07a3.39,3.39,0,1,1-3.39,3.39A3.39,3.39,0,0,1,473.07,140.07Z"/><path class="cls-3" d="M473.07,103.21a3.39,3.39,0,1,1-3.39,3.38A3.38,3.38,0,0,1,473.07,103.21Z"/><path class="cls-3" d="M473.07,67a3.39,3.39,0,1,1-3.39,3.39A3.39,3.39,0,0,1,473.07,67Z"/><path class="cls-3" d="M473.07,29.69a3.39,3.39,0,1,1-3.39,3.39A3.39,3.39,0,0,1,473.07,29.69Z"/><path class="cls-3" d="M509.27,727.06a3.39,3.39,0,1,1-3.39,3.39A3.39,3.39,0,0,1,509.27,727.06Z"/><path class="cls-3" d="M509.27,763.53a3.39,3.39,0,1,1-3.39,3.39A3.39,3.39,0,0,1,509.27,763.53Z"/><path class="cls-3" d="M509.27,690.2a3.39,3.39,0,1,1-3.39,3.38A3.38,3.38,0,0,1,509.27,690.2Z"/><path class="cls-3" d="M509.27,654a3.39,3.39,0,1,1-3.39,3.39A3.39,3.39,0,0,1,509.27,654Z"/><path class="cls-3" d="M509.27,616.69a3.39,3.39,0,1,1-3.39,3.38A3.38,3.38,0,0,1,509.27,616.69Z"/><path class="cls-3" d="M509.27,580.31a3.39,3.39,0,1,1-3.39,3.39A3.39,3.39,0,0,1,509.27,580.31Z"/><path class="cls-3" d="M509.27,543.44a3.39,3.39,0,1,1-3.39,3.39A3.39,3.39,0,0,1,509.27,543.44Z"/><path class="cls-3" d="M509.27,507.26a3.39,3.39,0,1,1-3.39,3.38A3.38,3.38,0,0,1,509.27,507.26Z"/><path class="cls-3" d="M509.27,469.93a3.39,3.39,0,1,1-3.39,3.39A3.39,3.39,0,0,1,509.27,469.93Z"/><path class="cls-3" d="M509.27,433.51a3.39,3.39,0,1,1-3.39,3.39A3.39,3.39,0,0,1,509.27,433.51Z"/><path class="cls-3" d="M509.27,396.65a3.39,3.39,0,1,1-3.39,3.38A3.38,3.38,0,0,1,509.27,396.65Z"/><path class="cls-3" d="M509.27,360.46a3.39,3.39,0,1,1-3.39,3.39A3.39,3.39,0,0,1,509.27,360.46Z"/><path class="cls-3" d="M509.27,323.14a3.39,3.39,0,1,1-3.39,3.38A3.38,3.38,0,0,1,509.27,323.14Z"/><path class="cls-3" d="M509.27,287.1a3.39,3.39,0,1,1-3.39,3.39A3.39,3.39,0,0,1,509.27,287.1Z"/><path class="cls-3" d="M509.27,250.23a3.39,3.39,0,1,1-3.39,3.39A3.39,3.39,0,0,1,509.27,250.23Z"/><path class="cls-3" d="M509.27,214.05a3.39,3.39,0,1,1-3.39,3.39A3.39,3.39,0,0,1,509.27,214.05Z"/><path class="cls-3" d="M509.27,176.72a3.39,3.39,0,1,1-3.39,3.39A3.39,3.39,0,0,1,509.27,176.72Z"/><path class="cls-3" d="M509.27,140.07a3.39,3.39,0,1,1-3.39,3.39A3.39,3.39,0,0,1,509.27,140.07Z"/><path class="cls-3" d="M509.27,103.21a3.39,3.39,0,1,1-3.39,3.38A3.38,3.38,0,0,1,509.27,103.21Z"/><path class="cls-3" d="M509.27,67a3.39,3.39,0,1,1-3.39,3.39A3.39,3.39,0,0,1,509.27,67Z"/><path class="cls-3" d="M509.27,29.69a3.39,3.39,0,1,1-3.39,3.39A3.39,3.39,0,0,1,509.27,29.69Z"/><path class="cls-3" d="M546,727.06a3.39,3.39,0,1,1-3.39,3.39A3.39,3.39,0,0,1,546,727.06Z"/><path class="cls-3" d="M546,763.53a3.39,3.39,0,1,1-3.39,3.39A3.39,3.39,0,0,1,546,763.53Z"/><path class="cls-3" d="M546,690.2a3.39,3.39,0,1,1-3.39,3.38A3.38,3.38,0,0,1,546,690.2Z"/><path class="cls-3" d="M546,654a3.39,3.39,0,1,1-3.39,3.39A3.39,3.39,0,0,1,546,654Z"/><path class="cls-3" d="M546,616.69a3.39,3.39,0,1,1-3.39,3.38A3.38,3.38,0,0,1,546,616.69Z"/><path class="cls-3" d="M546,580.31a3.39,3.39,0,1,1-3.39,3.39A3.39,3.39,0,0,1,546,580.31Z"/><path class="cls-3" d="M546,543.44a3.39,3.39,0,1,1-3.39,3.39A3.39,3.39,0,0,1,546,543.44Z"/><path class="cls-3" d="M546,507.26a3.39,3.39,0,1,1-3.39,3.38A3.38,3.38,0,0,1,546,507.26Z"/><path class="cls-3" d="M546,469.93a3.39,3.39,0,1,1-3.39,3.39A3.39,3.39,0,0,1,546,469.93Z"/><path class="cls-3" d="M546,433.51a3.39,3.39,0,1,1-3.39,3.39A3.39,3.39,0,0,1,546,433.51Z"/><path class="cls-3" d="M546,396.65a3.39,3.39,0,1,1-3.39,3.38A3.38,3.38,0,0,1,546,396.65Z"/><path class="cls-3" d="M546,360.46a3.39,3.39,0,1,1-3.39,3.39A3.39,3.39,0,0,1,546,360.46Z"/><path class="cls-3" d="M546,323.14a3.39,3.39,0,1,1-3.39,3.38A3.38,3.38,0,0,1,546,323.14Z"/><path class="cls-3" d="M546,287.1a3.39,3.39,0,1,1-3.39,3.39A3.39,3.39,0,0,1,546,287.1Z"/><path class="cls-3" d="M546,250.23a3.39,3.39,0,1,1-3.39,3.39A3.39,3.39,0,0,1,546,250.23Z"/><path class="cls-3" d="M546,214.05a3.39,3.39,0,1,1-3.39,3.39A3.39,3.39,0,0,1,546,214.05Z"/><path class="cls-3" d="M546,176.72a3.39,3.39,0,1,1-3.39,3.39A3.39,3.39,0,0,1,546,176.72Z"/><path class="cls-3" d="M546,140.07a3.39,3.39,0,1,1-3.39,3.39A3.39,3.39,0,0,1,546,140.07Z"/><path class="cls-3" d="M546,103.21a3.39,3.39,0,1,1-3.39,3.38A3.38,3.38,0,0,1,546,103.21Z"/><path class="cls-3" d="M546,67a3.39,3.39,0,1,1-3.39,3.39A3.39,3.39,0,0,1,546,67Z"/><path class="cls-3" d="M546,29.69a3.39,3.39,0,1,1-3.39,3.39A3.39,3.39,0,0,1,546,29.69Z"/><path class="cls-3" d="M582.67,727.06a3.39,3.39,0,1,1-3.39,3.39A3.39,3.39,0,0,1,582.67,727.06Z"/><path class="cls-3" d="M582.67,763.53a3.39,3.39,0,1,1-3.39,3.39A3.39,3.39,0,0,1,582.67,763.53Z"/><path class="cls-3" d="M582.67,690.2a3.39,3.39,0,1,1-3.39,3.38A3.38,3.38,0,0,1,582.67,690.2Z"/><path class="cls-3" d="M582.67,654a3.39,3.39,0,1,1-3.39,3.39A3.39,3.39,0,0,1,582.67,654Z"/><path class="cls-3" d="M582.67,616.69a3.39,3.39,0,1,1-3.39,3.38A3.38,3.38,0,0,1,582.67,616.69Z"/><path class="cls-3" d="M582.67,580.31a3.39,3.39,0,1,1-3.39,3.39A3.39,3.39,0,0,1,582.67,580.31Z"/><path class="cls-3" d="M582.67,543.44a3.39,3.39,0,1,1-3.39,3.39A3.39,3.39,0,0,1,582.67,543.44Z"/><path class="cls-3" d="M582.67,507.26a3.39,3.39,0,1,1-3.39,3.38A3.38,3.38,0,0,1,582.67,507.26Z"/><path class="cls-3" d="M582.67,469.93a3.39,3.39,0,1,1-3.39,3.39A3.39,3.39,0,0,1,582.67,469.93Z"/><path class="cls-3" d="M582.67,433.51a3.39,3.39,0,1,1-3.39,3.39A3.39,3.39,0,0,1,582.67,433.51Z"/><path class="cls-3" d="M582.67,396.65a3.39,3.39,0,1,1-3.39,3.38A3.38,3.38,0,0,1,582.67,396.65Z"/><path class="cls-3" d="M582.67,360.46a3.39,3.39,0,1,1-3.39,3.39A3.39,3.39,0,0,1,582.67,360.46Z"/><path class="cls-3" d="M582.67,323.14a3.39,3.39,0,1,1-3.39,3.38A3.38,3.38,0,0,1,582.67,323.14Z"/><path class="cls-3" d="M582.67,287.1a3.39,3.39,0,1,1-3.39,3.39A3.39,3.39,0,0,1,582.67,287.1Z"/><path class="cls-3" d="M582.67,250.23a3.39,3.39,0,1,1-3.39,3.39A3.39,3.39,0,0,1,582.67,250.23Z"/><path class="cls-3" d="M582.67,214.05a3.39,3.39,0,1,1-3.39,3.39A3.39,3.39,0,0,1,582.67,214.05Z"/><path class="cls-3" d="M582.67,176.72a3.39,3.39,0,1,1-3.39,3.39A3.39,3.39,0,0,1,582.67,176.72Z"/><path class="cls-3" d="M582.67,140.07a3.39,3.39,0,1,1-3.39,3.39A3.39,3.39,0,0,1,582.67,140.07Z"/><path class="cls-3" d="M582.67,103.21a3.39,3.39,0,1,1-3.39,3.38A3.38,3.38,0,0,1,582.67,103.21Z"/><path class="cls-3" d="M582.67,67a3.39,3.39,0,1,1-3.39,3.39A3.39,3.39,0,0,1,582.67,67Z"/><path class="cls-3" d="M582.67,29.69a3.39,3.39,0,1,1-3.39,3.39A3.39,3.39,0,0,1,582.67,29.69Z"/><path class="cls-3" d="M619.62,727.06a3.39,3.39,0,1,1-3.39,3.39A3.39,3.39,0,0,1,619.62,727.06Z"/><path class="cls-3" d="M619.62,763.53a3.39,3.39,0,1,1-3.39,3.39A3.39,3.39,0,0,1,619.62,763.53Z"/><path class="cls-3" d="M619.62,690.2a3.39,3.39,0,1,1-3.39,3.38A3.38,3.38,0,0,1,619.62,690.2Z"/><path class="cls-3" d="M619.62,654a3.39,3.39,0,1,1-3.39,3.39A3.39,3.39,0,0,1,619.62,654Z"/><path class="cls-3" d="M619.62,616.69a3.39,3.39,0,1,1-3.39,3.38A3.38,3.38,0,0,1,619.62,616.69Z"/><path class="cls-3" d="M619.62,580.31a3.39,3.39,0,1,1-3.39,3.39A3.39,3.39,0,0,1,619.62,580.31Z"/><path class="cls-3" d="M619.62,543.44a3.39,3.39,0,1,1-3.39,3.39A3.39,3.39,0,0,1,619.62,543.44Z"/><path class="cls-3" d="M619.62,507.26a3.39,3.39,0,1,1-3.39,3.38A3.38,3.38,0,0,1,619.62,507.26Z"/><path class="cls-3" d="M619.62,469.93a3.39,3.39,0,1,1-3.39,3.39A3.39,3.39,0,0,1,619.62,469.93Z"/><path class="cls-3" d="M619.62,433.51a3.39,3.39,0,1,1-3.39,3.39A3.39,3.39,0,0,1,619.62,433.51Z"/><path class="cls-3" d="M619.62,396.65a3.39,3.39,0,1,1-3.39,3.38A3.38,3.38,0,0,1,619.62,396.65Z"/><path class="cls-3" d="M619.62,360.46a3.39,3.39,0,1,1-3.39,3.39A3.39,3.39,0,0,1,619.62,360.46Z"/><path class="cls-3" d="M619.62,323.14a3.39,3.39,0,1,1-3.39,3.38A3.38,3.38,0,0,1,619.62,323.14Z"/><path class="cls-3" d="M619.62,287.1a3.39,3.39,0,1,1-3.39,3.39A3.39,3.39,0,0,1,619.62,287.1Z"/><path class="cls-3" d="M619.62,250.23a3.39,3.39,0,1,1-3.39,3.39A3.39,3.39,0,0,1,619.62,250.23Z"/><path class="cls-3" d="M619.62,214.05a3.39,3.39,0,1,1-3.39,3.39A3.39,3.39,0,0,1,619.62,214.05Z"/><path class="cls-3" d="M619.62,176.72a3.39,3.39,0,1,1-3.39,3.39A3.39,3.39,0,0,1,619.62,176.72Z"/><path class="cls-3" d="M619.62,140.07a3.39,3.39,0,1,1-3.39,3.39A3.39,3.39,0,0,1,619.62,140.07Z"/><path class="cls-3" d="M619.62,103.21a3.39,3.39,0,1,1-3.39,3.38A3.38,3.38,0,0,1,619.62,103.21Z"/><path class="cls-3" d="M619.62,67a3.39,3.39,0,1,1-3.39,3.39A3.39,3.39,0,0,1,619.62,67Z"/><path class="cls-3" d="M619.62,29.69a3.39,3.39,0,1,1-3.39,3.39A3.39,3.39,0,0,1,619.62,29.69Z"/><path class="cls-3" d="M656.3,727.06a3.39,3.39,0,1,1-3.38,3.39A3.39,3.39,0,0,1,656.3,727.06Z"/><path class="cls-3" d="M656.3,763.53a3.39,3.39,0,1,1-3.38,3.39A3.39,3.39,0,0,1,656.3,763.53Z"/><path class="cls-3" d="M656.3,690.2a3.39,3.39,0,1,1-3.38,3.38A3.38,3.38,0,0,1,656.3,690.2Z"/><path class="cls-3" d="M656.3,654a3.39,3.39,0,1,1-3.38,3.39A3.39,3.39,0,0,1,656.3,654Z"/><path class="cls-3" d="M656.3,616.69a3.39,3.39,0,1,1-3.38,3.38A3.38,3.38,0,0,1,656.3,616.69Z"/><path class="cls-3" d="M656.3,580.31a3.39,3.39,0,1,1-3.38,3.39A3.39,3.39,0,0,1,656.3,580.31Z"/><path class="cls-3" d="M656.3,543.44a3.39,3.39,0,1,1-3.38,3.39A3.39,3.39,0,0,1,656.3,543.44Z"/><path class="cls-3" d="M656.3,507.26a3.39,3.39,0,1,1-3.38,3.38A3.38,3.38,0,0,1,656.3,507.26Z"/><path class="cls-3" d="M656.3,469.93a3.39,3.39,0,1,1-3.38,3.39A3.39,3.39,0,0,1,656.3,469.93Z"/><path class="cls-3" d="M656.3,433.51a3.39,3.39,0,1,1-3.38,3.39A3.39,3.39,0,0,1,656.3,433.51Z"/><path class="cls-3" d="M656.3,396.65a3.39,3.39,0,1,1-3.38,3.38A3.38,3.38,0,0,1,656.3,396.65Z"/><path class="cls-3" d="M656.3,360.46a3.39,3.39,0,1,1-3.38,3.39A3.39,3.39,0,0,1,656.3,360.46Z"/><path class="cls-3" d="M656.3,323.14a3.39,3.39,0,1,1-3.38,3.38A3.38,3.38,0,0,1,656.3,323.14Z"/><path class="cls-3" d="M656.3,287.1a3.39,3.39,0,1,1-3.38,3.39A3.39,3.39,0,0,1,656.3,287.1Z"/><path class="cls-3" d="M656.3,250.23a3.39,3.39,0,1,1-3.38,3.39A3.39,3.39,0,0,1,656.3,250.23Z"/><path class="cls-3" d="M656.3,214.05a3.39,3.39,0,1,1-3.38,3.39A3.39,3.39,0,0,1,656.3,214.05Z"/><path class="cls-3" d="M656.3,176.72a3.39,3.39,0,1,1-3.38,3.39A3.39,3.39,0,0,1,656.3,176.72Z"/><path class="cls-3" d="M656.3,140.07a3.39,3.39,0,1,1-3.38,3.39A3.39,3.39,0,0,1,656.3,140.07Z"/><path class="cls-3" d="M656.3,103.21a3.39,3.39,0,1,1-3.38,3.38A3.38,3.38,0,0,1,656.3,103.21Z"/><path class="cls-3" d="M656.3,67a3.39,3.39,0,1,1-3.38,3.39A3.39,3.39,0,0,1,656.3,67Z"/><path class="cls-3" d="M656.3,29.69a3.39,3.39,0,1,1-3.38,3.39A3.39,3.39,0,0,1,656.3,29.69Z"/><path class="cls-3" d="M692.89,727.06a3.39,3.39,0,1,1-3.39,3.39A3.39,3.39,0,0,1,692.89,727.06Z"/><path class="cls-3" d="M692.89,763.53a3.39,3.39,0,1,1-3.39,3.39A3.39,3.39,0,0,1,692.89,763.53Z"/><path class="cls-3" d="M692.89,690.2a3.39,3.39,0,1,1-3.39,3.38A3.38,3.38,0,0,1,692.89,690.2Z"/><path class="cls-3" d="M692.89,654a3.39,3.39,0,1,1-3.39,3.39A3.39,3.39,0,0,1,692.89,654Z"/><path class="cls-3" d="M692.89,616.69a3.39,3.39,0,1,1-3.39,3.38A3.38,3.38,0,0,1,692.89,616.69Z"/><path class="cls-3" d="M692.89,580.31a3.39,3.39,0,1,1-3.39,3.39A3.39,3.39,0,0,1,692.89,580.31Z"/><path class="cls-3" d="M692.89,543.44a3.39,3.39,0,1,1-3.39,3.39A3.39,3.39,0,0,1,692.89,543.44Z"/><path class="cls-3" d="M692.89,507.26a3.39,3.39,0,1,1-3.39,3.38A3.38,3.38,0,0,1,692.89,507.26Z"/><path class="cls-3" d="M692.89,469.93a3.39,3.39,0,1,1-3.39,3.39A3.39,3.39,0,0,1,692.89,469.93Z"/><path class="cls-3" d="M692.89,433.51a3.39,3.39,0,1,1-3.39,3.39A3.39,3.39,0,0,1,692.89,433.51Z"/><path class="cls-3" d="M692.89,396.65A3.39,3.39,0,1,1,689.5,400,3.38,3.38,0,0,1,692.89,396.65Z"/><path class="cls-3" d="M692.89,360.46a3.39,3.39,0,1,1-3.39,3.39A3.39,3.39,0,0,1,692.89,360.46Z"/><path class="cls-3" d="M692.89,323.14a3.39,3.39,0,1,1-3.39,3.38A3.38,3.38,0,0,1,692.89,323.14Z"/><path class="cls-3" d="M692.89,287.1a3.39,3.39,0,1,1-3.39,3.39A3.39,3.39,0,0,1,692.89,287.1Z"/><path class="cls-3" d="M692.89,250.23a3.39,3.39,0,1,1-3.39,3.39A3.39,3.39,0,0,1,692.89,250.23Z"/><path class="cls-3" d="M692.89,214.05a3.39,3.39,0,1,1-3.39,3.39A3.39,3.39,0,0,1,692.89,214.05Z"/><path class="cls-3" d="M692.89,176.72a3.39,3.39,0,1,1-3.39,3.39A3.39,3.39,0,0,1,692.89,176.72Z"/><path class="cls-3" d="M692.89,140.07a3.39,3.39,0,1,1-3.39,3.39A3.39,3.39,0,0,1,692.89,140.07Z"/><path class="cls-3" d="M692.89,103.21a3.39,3.39,0,1,1-3.39,3.38A3.38,3.38,0,0,1,692.89,103.21Z"/><path class="cls-3" d="M692.89,67a3.39,3.39,0,1,1-3.39,3.39A3.39,3.39,0,0,1,692.89,67Z"/><path class="cls-3" d="M692.89,29.69a3.39,3.39,0,1,1-3.39,3.39A3.39,3.39,0,0,1,692.89,29.69Z"/><path class="cls-3" d="M730,727.06a3.39,3.39,0,1,1-3.39,3.39A3.39,3.39,0,0,1,730,727.06Z"/><path class="cls-3" d="M730,763.53a3.39,3.39,0,1,1-3.39,3.39A3.39,3.39,0,0,1,730,763.53Z"/><path class="cls-3" d="M730,690.2a3.39,3.39,0,1,1-3.39,3.38A3.38,3.38,0,0,1,730,690.2Z"/><path class="cls-3" d="M730,654a3.39,3.39,0,1,1-3.39,3.39A3.39,3.39,0,0,1,730,654Z"/><path class="cls-3" d="M730,616.69a3.39,3.39,0,1,1-3.39,3.38A3.38,3.38,0,0,1,730,616.69Z"/><path class="cls-3" d="M730,580.31a3.39,3.39,0,1,1-3.39,3.39A3.39,3.39,0,0,1,730,580.31Z"/><path class="cls-3" d="M730,543.44a3.39,3.39,0,1,1-3.39,3.39A3.39,3.39,0,0,1,730,543.44Z"/><path class="cls-3" d="M730,507.26a3.39,3.39,0,1,1-3.39,3.38A3.38,3.38,0,0,1,730,507.26Z"/><path class="cls-3" d="M730,469.93a3.39,3.39,0,1,1-3.39,3.39A3.39,3.39,0,0,1,730,469.93Z"/><path class="cls-3" d="M730,433.51a3.39,3.39,0,1,1-3.39,3.39A3.39,3.39,0,0,1,730,433.51Z"/><path class="cls-3" d="M730,396.65a3.39,3.39,0,1,1-3.39,3.38A3.38,3.38,0,0,1,730,396.65Z"/><path class="cls-3" d="M730,360.46a3.39,3.39,0,1,1-3.39,3.39A3.39,3.39,0,0,1,730,360.46Z"/><path class="cls-3" d="M730,323.14a3.39,3.39,0,1,1-3.39,3.38A3.38,3.38,0,0,1,730,323.14Z"/><path class="cls-3" d="M730,287.1a3.39,3.39,0,1,1-3.39,3.39A3.39,3.39,0,0,1,730,287.1Z"/><path class="cls-3" d="M730,250.23a3.39,3.39,0,1,1-3.39,3.39A3.39,3.39,0,0,1,730,250.23Z"/><path class="cls-3" d="M730,214.05a3.39,3.39,0,1,1-3.39,3.39A3.39,3.39,0,0,1,730,214.05Z"/><path class="cls-3" d="M730,176.72a3.39,3.39,0,1,1-3.39,3.39A3.39,3.39,0,0,1,730,176.72Z"/><path class="cls-3" d="M730,140.07a3.39,3.39,0,1,1-3.39,3.39A3.39,3.39,0,0,1,730,140.07Z"/><path class="cls-3" d="M730,103.21a3.39,3.39,0,1,1-3.39,3.38A3.38,3.38,0,0,1,730,103.21Z"/><path class="cls-3" d="M730,67a3.39,3.39,0,1,1-3.39,3.39A3.39,3.39,0,0,1,730,67Z"/><path class="cls-3" d="M730,29.69a3.39,3.39,0,1,1-3.39,3.39A3.39,3.39,0,0,1,730,29.69Z"/><path class="cls-3" d="M766.67,727.06a3.39,3.39,0,1,1-3.39,3.39A3.38,3.38,0,0,1,766.67,727.06Z"/><path class="cls-3" d="M766.67,763.53a3.39,3.39,0,1,1-3.39,3.39A3.38,3.38,0,0,1,766.67,763.53Z"/><path class="cls-3" d="M766.67,690.2a3.39,3.39,0,1,1-3.39,3.38A3.38,3.38,0,0,1,766.67,690.2Z"/><path class="cls-3" d="M766.67,654a3.39,3.39,0,1,1-3.39,3.39A3.38,3.38,0,0,1,766.67,654Z"/><path class="cls-3" d="M766.67,616.69a3.39,3.39,0,1,1-3.39,3.38A3.38,3.38,0,0,1,766.67,616.69Z"/><path class="cls-3" d="M766.67,580.31a3.39,3.39,0,1,1-3.39,3.39A3.38,3.38,0,0,1,766.67,580.31Z"/><path class="cls-3" d="M766.67,543.44a3.39,3.39,0,1,1-3.39,3.39A3.38,3.38,0,0,1,766.67,543.44Z"/><path class="cls-3" d="M766.67,507.26a3.39,3.39,0,1,1-3.39,3.38A3.38,3.38,0,0,1,766.67,507.26Z"/><path class="cls-3" d="M766.67,469.93a3.39,3.39,0,1,1-3.39,3.39A3.38,3.38,0,0,1,766.67,469.93Z"/><path class="cls-3" d="M766.67,433.51a3.39,3.39,0,1,1-3.39,3.39A3.38,3.38,0,0,1,766.67,433.51Z"/><path class="cls-3" d="M766.67,396.65a3.39,3.39,0,1,1-3.39,3.38A3.38,3.38,0,0,1,766.67,396.65Z"/><path class="cls-3" d="M766.67,360.46a3.39,3.39,0,1,1-3.39,3.39A3.38,3.38,0,0,1,766.67,360.46Z"/><path class="cls-3" d="M766.67,323.14a3.39,3.39,0,1,1-3.39,3.38A3.38,3.38,0,0,1,766.67,323.14Z"/><path class="cls-3" d="M766.67,287.1a3.39,3.39,0,1,1-3.39,3.39A3.38,3.38,0,0,1,766.67,287.1Z"/><path class="cls-3" d="M766.67,250.23a3.39,3.39,0,1,1-3.39,3.39A3.38,3.38,0,0,1,766.67,250.23Z"/><path class="cls-3" d="M766.67,214.05a3.39,3.39,0,1,1-3.39,3.39A3.38,3.38,0,0,1,766.67,214.05Z"/><path class="cls-3" d="M766.67,176.72a3.39,3.39,0,1,1-3.39,3.39A3.38,3.38,0,0,1,766.67,176.72Z"/><path class="cls-3" d="M766.67,140.07a3.39,3.39,0,1,1-3.39,3.39A3.38,3.38,0,0,1,766.67,140.07Z"/><path class="cls-3" d="M766.67,103.21a3.39,3.39,0,1,1-3.39,3.38A3.38,3.38,0,0,1,766.67,103.21Z"/><path class="cls-3" d="M766.67,67a3.39,3.39,0,1,1-3.39,3.39A3.38,3.38,0,0,1,766.67,67Z"/><path class="cls-3" d="M766.67,29.69a3.39,3.39,0,1,1-3.39,3.39A3.38,3.38,0,0,1,766.67,29.69Z"/><path class="cls-3" d="M802,727.06a3.39,3.39,0,1,1-3.39,3.39A3.39,3.39,0,0,1,802,727.06Z"/><path class="cls-3" d="M802,763.53a3.39,3.39,0,1,1-3.39,3.39A3.39,3.39,0,0,1,802,763.53Z"/><path class="cls-3" d="M802,690.2a3.39,3.39,0,1,1-3.39,3.38A3.38,3.38,0,0,1,802,690.2Z"/><path class="cls-3" d="M802,654a3.39,3.39,0,1,1-3.39,3.39A3.39,3.39,0,0,1,802,654Z"/><path class="cls-3" d="M802,616.69a3.39,3.39,0,1,1-3.39,3.38A3.38,3.38,0,0,1,802,616.69Z"/><path class="cls-3" d="M802,580.31a3.39,3.39,0,1,1-3.39,3.39A3.39,3.39,0,0,1,802,580.31Z"/><path class="cls-3" d="M802,543.44a3.39,3.39,0,1,1-3.39,3.39A3.39,3.39,0,0,1,802,543.44Z"/><path class="cls-3" d="M802,507.26a3.39,3.39,0,1,1-3.39,3.38A3.38,3.38,0,0,1,802,507.26Z"/><path class="cls-3" d="M802,469.93a3.39,3.39,0,1,1-3.39,3.39A3.39,3.39,0,0,1,802,469.93Z"/><path class="cls-3" d="M802,433.51a3.39,3.39,0,1,1-3.39,3.39A3.39,3.39,0,0,1,802,433.51Z"/><path class="cls-3" d="M802,396.65a3.39,3.39,0,1,1-3.39,3.38A3.38,3.38,0,0,1,802,396.65Z"/><path class="cls-3" d="M802,360.46a3.39,3.39,0,1,1-3.39,3.39A3.39,3.39,0,0,1,802,360.46Z"/><path class="cls-3" d="M802,323.14a3.39,3.39,0,1,1-3.39,3.38A3.38,3.38,0,0,1,802,323.14Z"/><path class="cls-3" d="M802,287.1a3.39,3.39,0,1,1-3.39,3.39A3.39,3.39,0,0,1,802,287.1Z"/><path class="cls-3" d="M802,250.23a3.39,3.39,0,1,1-3.39,3.39A3.39,3.39,0,0,1,802,250.23Z"/><path class="cls-3" d="M802,214.05a3.39,3.39,0,1,1-3.39,3.39A3.39,3.39,0,0,1,802,214.05Z"/><path class="cls-3" d="M802,176.72a3.39,3.39,0,1,1-3.39,3.39A3.39,3.39,0,0,1,802,176.72Z"/><path class="cls-3" d="M802,140.07a3.39,3.39,0,1,1-3.39,3.39A3.39,3.39,0,0,1,802,140.07Z"/><path class="cls-3" d="M802,103.21a3.39,3.39,0,1,1-3.39,3.38A3.38,3.38,0,0,1,802,103.21Z"/><path class="cls-3" d="M802,67a3.39,3.39,0,1,1-3.39,3.39A3.39,3.39,0,0,1,802,67Z"/><path class="cls-3" d="M802,29.69a3.39,3.39,0,1,1-3.39,3.39A3.39,3.39,0,0,1,802,29.69Z"/><path class="cls-3" d="M838.78,727.06a3.39,3.39,0,1,1-3.39,3.39A3.38,3.38,0,0,1,838.78,727.06Z"/><path class="cls-3" d="M838.78,763.53a3.39,3.39,0,1,1-3.39,3.39A3.38,3.38,0,0,1,838.78,763.53Z"/><path class="cls-3" d="M838.78,690.2a3.39,3.39,0,1,1-3.39,3.38A3.38,3.38,0,0,1,838.78,690.2Z"/><path class="cls-3" d="M838.78,654a3.39,3.39,0,1,1-3.39,3.39A3.38,3.38,0,0,1,838.78,654Z"/><path class="cls-3" d="M838.78,616.69a3.39,3.39,0,1,1-3.39,3.38A3.38,3.38,0,0,1,838.78,616.69Z"/><path class="cls-3" d="M838.78,580.31a3.39,3.39,0,1,1-3.39,3.39A3.38,3.38,0,0,1,838.78,580.31Z"/><path class="cls-3" d="M838.78,543.44a3.39,3.39,0,1,1-3.39,3.39A3.38,3.38,0,0,1,838.78,543.44Z"/><path class="cls-3" d="M838.78,507.26a3.39,3.39,0,1,1-3.39,3.38A3.38,3.38,0,0,1,838.78,507.26Z"/><path class="cls-3" d="M838.78,469.93a3.39,3.39,0,1,1-3.39,3.39A3.38,3.38,0,0,1,838.78,469.93Z"/><path class="cls-3" d="M838.78,433.51a3.39,3.39,0,1,1-3.39,3.39A3.38,3.38,0,0,1,838.78,433.51Z"/><path class="cls-3" d="M838.78,396.65a3.39,3.39,0,1,1-3.39,3.38A3.38,3.38,0,0,1,838.78,396.65Z"/><path class="cls-3" d="M838.78,360.46a3.39,3.39,0,1,1-3.39,3.39A3.38,3.38,0,0,1,838.78,360.46Z"/><path class="cls-3" d="M838.78,323.14a3.39,3.39,0,1,1-3.39,3.38A3.38,3.38,0,0,1,838.78,323.14Z"/><path class="cls-3" d="M838.78,287.1a3.39,3.39,0,1,1-3.39,3.39A3.38,3.38,0,0,1,838.78,287.1Z"/><path class="cls-3" d="M838.78,250.23a3.39,3.39,0,1,1-3.39,3.39A3.38,3.38,0,0,1,838.78,250.23Z"/><path class="cls-3" d="M838.78,214.05a3.39,3.39,0,1,1-3.39,3.39A3.38,3.38,0,0,1,838.78,214.05Z"/><path class="cls-3" d="M838.78,176.72a3.39,3.39,0,1,1-3.39,3.39A3.38,3.38,0,0,1,838.78,176.72Z"/><path class="cls-3" d="M838.78,140.07a3.39,3.39,0,1,1-3.39,3.39A3.38,3.38,0,0,1,838.78,140.07Z"/><path class="cls-3" d="M838.78,103.21a3.39,3.39,0,1,1-3.39,3.38A3.38,3.38,0,0,1,838.78,103.21Z"/><path class="cls-3" d="M838.78,67a3.39,3.39,0,1,1-3.39,3.39A3.38,3.38,0,0,1,838.78,67Z"/><path class="cls-3" d="M838.78,29.69a3.39,3.39,0,1,1-3.39,3.39A3.38,3.38,0,0,1,838.78,29.69Z"/><path class="cls-3" d="M875,727.06a3.39,3.39,0,1,1-3.38,3.39A3.39,3.39,0,0,1,875,727.06Z"/><path class="cls-3" d="M875,763.53a3.39,3.39,0,1,1-3.38,3.39A3.39,3.39,0,0,1,875,763.53Z"/><path class="cls-3" d="M875,690.2a3.39,3.39,0,1,1-3.38,3.38A3.38,3.38,0,0,1,875,690.2Z"/><path class="cls-3" d="M875,654a3.39,3.39,0,1,1-3.38,3.39A3.39,3.39,0,0,1,875,654Z"/><path class="cls-3" d="M875,616.69a3.39,3.39,0,1,1-3.38,3.38A3.38,3.38,0,0,1,875,616.69Z"/><path class="cls-3" d="M875,580.31a3.39,3.39,0,1,1-3.38,3.39A3.39,3.39,0,0,1,875,580.31Z"/><path class="cls-3" d="M875,543.44a3.39,3.39,0,1,1-3.38,3.39A3.39,3.39,0,0,1,875,543.44Z"/><path class="cls-3" d="M875,507.26a3.39,3.39,0,1,1-3.38,3.38A3.38,3.38,0,0,1,875,507.26Z"/><path class="cls-3" d="M875,469.93a3.39,3.39,0,1,1-3.38,3.39A3.39,3.39,0,0,1,875,469.93Z"/><path class="cls-3" d="M875,433.51a3.39,3.39,0,1,1-3.38,3.39A3.39,3.39,0,0,1,875,433.51Z"/><path class="cls-3" d="M875,396.65a3.39,3.39,0,1,1-3.38,3.38A3.38,3.38,0,0,1,875,396.65Z"/><path class="cls-3" d="M875,360.46a3.39,3.39,0,1,1-3.38,3.39A3.39,3.39,0,0,1,875,360.46Z"/><path class="cls-3" d="M875,323.14a3.39,3.39,0,1,1-3.38,3.38A3.38,3.38,0,0,1,875,323.14Z"/><path class="cls-3" d="M875,287.1a3.39,3.39,0,1,1-3.38,3.39A3.39,3.39,0,0,1,875,287.1Z"/><path class="cls-3" d="M875,250.23a3.39,3.39,0,1,1-3.38,3.39A3.39,3.39,0,0,1,875,250.23Z"/><path class="cls-3" d="M875,214.05a3.39,3.39,0,1,1-3.38,3.39A3.39,3.39,0,0,1,875,214.05Z"/><path class="cls-3" d="M875,176.72a3.39,3.39,0,1,1-3.38,3.39A3.39,3.39,0,0,1,875,176.72Z"/><path class="cls-3" d="M875,140.07a3.39,3.39,0,1,1-3.38,3.39A3.39,3.39,0,0,1,875,140.07Z"/><path class="cls-3" d="M875,103.21a3.39,3.39,0,1,1-3.38,3.38A3.38,3.38,0,0,1,875,103.21Z"/><path class="cls-3" d="M875,67a3.39,3.39,0,1,1-3.38,3.39A3.39,3.39,0,0,1,875,67Z"/><path class="cls-3" d="M875,29.69a3.39,3.39,0,1,1-3.38,3.39A3.39,3.39,0,0,1,875,29.69Z"/><path class="cls-3" d="M911.71,727.06a3.39,3.39,0,1,1-3.38,3.39A3.39,3.39,0,0,1,911.71,727.06Z"/><path class="cls-3" d="M911.71,763.53a3.39,3.39,0,1,1-3.38,3.39A3.39,3.39,0,0,1,911.71,763.53Z"/><path class="cls-3" d="M911.71,690.2a3.39,3.39,0,1,1-3.38,3.38A3.38,3.38,0,0,1,911.71,690.2Z"/><path class="cls-3" d="M911.71,654a3.39,3.39,0,1,1-3.38,3.39A3.39,3.39,0,0,1,911.71,654Z"/><path class="cls-3" d="M911.71,616.69a3.39,3.39,0,1,1-3.38,3.38A3.38,3.38,0,0,1,911.71,616.69Z"/><path class="cls-3" d="M911.71,580.31a3.39,3.39,0,1,1-3.38,3.39A3.39,3.39,0,0,1,911.71,580.31Z"/><path class="cls-3" d="M911.71,543.44a3.39,3.39,0,1,1-3.38,3.39A3.39,3.39,0,0,1,911.71,543.44Z"/><path class="cls-3" d="M911.71,507.26a3.39,3.39,0,1,1-3.38,3.38A3.38,3.38,0,0,1,911.71,507.26Z"/><path class="cls-3" d="M911.71,469.93a3.39,3.39,0,1,1-3.38,3.39A3.39,3.39,0,0,1,911.71,469.93Z"/><path class="cls-3" d="M911.71,433.51a3.39,3.39,0,1,1-3.38,3.39A3.39,3.39,0,0,1,911.71,433.51Z"/><path class="cls-3" d="M911.71,396.65a3.39,3.39,0,1,1-3.38,3.38A3.38,3.38,0,0,1,911.71,396.65Z"/><path class="cls-3" d="M911.71,360.46a3.39,3.39,0,1,1-3.38,3.39A3.39,3.39,0,0,1,911.71,360.46Z"/><path class="cls-3" d="M911.71,323.14a3.39,3.39,0,1,1-3.38,3.38A3.38,3.38,0,0,1,911.71,323.14Z"/><path class="cls-3" d="M911.71,287.1a3.39,3.39,0,1,1-3.38,3.39A3.39,3.39,0,0,1,911.71,287.1Z"/><path class="cls-3" d="M911.71,250.23a3.39,3.39,0,1,1-3.38,3.39A3.39,3.39,0,0,1,911.71,250.23Z"/><path class="cls-3" d="M911.71,214.05a3.39,3.39,0,1,1-3.38,3.39A3.39,3.39,0,0,1,911.71,214.05Z"/><path class="cls-3" d="M911.71,176.72a3.39,3.39,0,1,1-3.38,3.39A3.39,3.39,0,0,1,911.71,176.72Z"/><path class="cls-3" d="M911.71,140.07a3.39,3.39,0,1,1-3.38,3.39A3.39,3.39,0,0,1,911.71,140.07Z"/><path class="cls-3" d="M911.71,103.21a3.39,3.39,0,1,1-3.38,3.38A3.38,3.38,0,0,1,911.71,103.21Z"/><path class="cls-3" d="M911.71,67a3.39,3.39,0,1,1-3.38,3.39A3.39,3.39,0,0,1,911.71,67Z"/><path class="cls-3" d="M911.71,29.69a3.39,3.39,0,1,1-3.38,3.39A3.39,3.39,0,0,1,911.71,29.69Z"/><path class="cls-3" d="M948.38,727.06a3.39,3.39,0,1,1-3.39,3.39A3.38,3.38,0,0,1,948.38,727.06Z"/><path class="cls-3" d="M948.38,763.53a3.39,3.39,0,1,1-3.39,3.39A3.38,3.38,0,0,1,948.38,763.53Z"/><path class="cls-3" d="M948.38,690.2a3.39,3.39,0,1,1-3.39,3.38A3.38,3.38,0,0,1,948.38,690.2Z"/><path class="cls-3" d="M948.38,654A3.39,3.39,0,1,1,945,657.4,3.38,3.38,0,0,1,948.38,654Z"/><path class="cls-3" d="M948.38,616.69a3.39,3.39,0,1,1-3.39,3.38A3.38,3.38,0,0,1,948.38,616.69Z"/><path class="cls-3" d="M948.38,580.31A3.39,3.39,0,1,1,945,583.7,3.38,3.38,0,0,1,948.38,580.31Z"/><path class="cls-3" d="M948.38,543.44a3.39,3.39,0,1,1-3.39,3.39A3.38,3.38,0,0,1,948.38,543.44Z"/><path class="cls-3" d="M948.38,507.26a3.39,3.39,0,1,1-3.39,3.38A3.38,3.38,0,0,1,948.38,507.26Z"/><path class="cls-3" d="M948.38,469.93a3.39,3.39,0,1,1-3.39,3.39A3.38,3.38,0,0,1,948.38,469.93Z"/><path class="cls-3" d="M948.38,433.51A3.39,3.39,0,1,1,945,436.9,3.38,3.38,0,0,1,948.38,433.51Z"/><path class="cls-3" d="M948.38,396.65A3.39,3.39,0,1,1,945,400,3.38,3.38,0,0,1,948.38,396.65Z"/><path class="cls-3" d="M948.38,360.46a3.39,3.39,0,1,1-3.39,3.39A3.38,3.38,0,0,1,948.38,360.46Z"/><path class="cls-3" d="M948.38,323.14a3.39,3.39,0,1,1-3.39,3.38A3.38,3.38,0,0,1,948.38,323.14Z"/><path class="cls-3" d="M948.38,287.1a3.39,3.39,0,1,1-3.39,3.39A3.38,3.38,0,0,1,948.38,287.1Z"/><path class="cls-3" d="M948.38,250.23a3.39,3.39,0,1,1-3.39,3.39A3.38,3.38,0,0,1,948.38,250.23Z"/><path class="cls-3" d="M948.38,214.05a3.39,3.39,0,1,1-3.39,3.39A3.38,3.38,0,0,1,948.38,214.05Z"/><path class="cls-3" d="M948.38,176.72a3.39,3.39,0,1,1-3.39,3.39A3.38,3.38,0,0,1,948.38,176.72Z"/><path class="cls-3" d="M948.38,140.07a3.39,3.39,0,1,1-3.39,3.39A3.38,3.38,0,0,1,948.38,140.07Z"/><path class="cls-3" d="M948.38,103.21a3.39,3.39,0,1,1-3.39,3.38A3.38,3.38,0,0,1,948.38,103.21Z"/><path class="cls-3" d="M948.38,67A3.39,3.39,0,1,1,945,70.41,3.38,3.38,0,0,1,948.38,67Z"/><path class="cls-3" d="M948.38,29.69A3.39,3.39,0,1,1,945,33.08,3.38,3.38,0,0,1,948.38,29.69Z"/><path class="cls-3" d="M985.33,727.06a3.39,3.39,0,1,1-3.39,3.39A3.38,3.38,0,0,1,985.33,727.06Z"/><path class="cls-3" d="M985.33,763.53a3.39,3.39,0,1,1-3.39,3.39A3.38,3.38,0,0,1,985.33,763.53Z"/><path class="cls-3" d="M985.33,690.2a3.39,3.39,0,1,1-3.39,3.38A3.38,3.38,0,0,1,985.33,690.2Z"/><path class="cls-3" d="M985.33,654a3.39,3.39,0,1,1-3.39,3.39A3.38,3.38,0,0,1,985.33,654Z"/><path class="cls-3" d="M985.33,616.69a3.39,3.39,0,1,1-3.39,3.38A3.38,3.38,0,0,1,985.33,616.69Z"/><path class="cls-3" d="M985.33,580.31a3.39,3.39,0,1,1-3.39,3.39A3.38,3.38,0,0,1,985.33,580.31Z"/><path class="cls-3" d="M985.33,543.44a3.39,3.39,0,1,1-3.39,3.39A3.38,3.38,0,0,1,985.33,543.44Z"/><path class="cls-3" d="M985.33,507.26a3.39,3.39,0,1,1-3.39,3.38A3.38,3.38,0,0,1,985.33,507.26Z"/><path class="cls-3" d="M985.33,469.93a3.39,3.39,0,1,1-3.39,3.39A3.38,3.38,0,0,1,985.33,469.93Z"/><path class="cls-3" d="M985.33,433.51a3.39,3.39,0,1,1-3.39,3.39A3.38,3.38,0,0,1,985.33,433.51Z"/><path class="cls-3" d="M985.33,396.65a3.39,3.39,0,1,1-3.39,3.38A3.38,3.38,0,0,1,985.33,396.65Z"/><path class="cls-3" d="M985.33,360.46a3.39,3.39,0,1,1-3.39,3.39A3.38,3.38,0,0,1,985.33,360.46Z"/><path class="cls-3" d="M985.33,323.14a3.39,3.39,0,1,1-3.39,3.38A3.38,3.38,0,0,1,985.33,323.14Z"/><path class="cls-3" d="M985.33,287.1a3.39,3.39,0,1,1-3.39,3.39A3.38,3.38,0,0,1,985.33,287.1Z"/><path class="cls-3" d="M985.33,250.23a3.39,3.39,0,1,1-3.39,3.39A3.38,3.38,0,0,1,985.33,250.23Z"/><path class="cls-3" d="M985.33,214.05a3.39,3.39,0,1,1-3.39,3.39A3.38,3.38,0,0,1,985.33,214.05Z"/><path class="cls-3" d="M985.33,176.72a3.39,3.39,0,1,1-3.39,3.39A3.38,3.38,0,0,1,985.33,176.72Z"/><path class="cls-3" d="M985.33,140.07a3.39,3.39,0,1,1-3.39,3.39A3.38,3.38,0,0,1,985.33,140.07Z"/><path class="cls-3" d="M985.33,103.21a3.39,3.39,0,1,1-3.39,3.38A3.38,3.38,0,0,1,985.33,103.21Z"/><path class="cls-3" d="M985.33,67a3.39,3.39,0,1,1-3.39,3.39A3.38,3.38,0,0,1,985.33,67Z"/><path class="cls-3" d="M985.33,29.69a3.39,3.39,0,1,1-3.39,3.39A3.38,3.38,0,0,1,985.33,29.69Z"/><path class="cls-3" d="M1022,727.06a3.39,3.39,0,1,1-3.39,3.39A3.39,3.39,0,0,1,1022,727.06Z"/><path class="cls-3" d="M1022,763.53a3.39,3.39,0,1,1-3.39,3.39A3.39,3.39,0,0,1,1022,763.53Z"/><path class="cls-3" d="M1022,690.2a3.39,3.39,0,1,1-3.39,3.38A3.38,3.38,0,0,1,1022,690.2Z"/><path class="cls-3" d="M1022,654a3.39,3.39,0,1,1-3.39,3.39A3.39,3.39,0,0,1,1022,654Z"/><path class="cls-3" d="M1022,616.69a3.39,3.39,0,1,1-3.39,3.38A3.38,3.38,0,0,1,1022,616.69Z"/><path class="cls-3" d="M1022,580.31a3.39,3.39,0,1,1-3.39,3.39A3.39,3.39,0,0,1,1022,580.31Z"/><path class="cls-3" d="M1022,543.44a3.39,3.39,0,1,1-3.39,3.39A3.39,3.39,0,0,1,1022,543.44Z"/><path class="cls-3" d="M1022,507.26a3.39,3.39,0,1,1-3.39,3.38A3.38,3.38,0,0,1,1022,507.26Z"/><path class="cls-3" d="M1022,469.93a3.39,3.39,0,1,1-3.39,3.39A3.39,3.39,0,0,1,1022,469.93Z"/><path class="cls-3" d="M1022,433.51a3.39,3.39,0,1,1-3.39,3.39A3.39,3.39,0,0,1,1022,433.51Z"/><path class="cls-3" d="M1022,396.65a3.39,3.39,0,1,1-3.39,3.38A3.38,3.38,0,0,1,1022,396.65Z"/><path class="cls-3" d="M1022,360.46a3.39,3.39,0,1,1-3.39,3.39A3.39,3.39,0,0,1,1022,360.46Z"/><path class="cls-3" d="M1022,323.14a3.39,3.39,0,1,1-3.39,3.38A3.38,3.38,0,0,1,1022,323.14Z"/><path class="cls-3" d="M1022,287.1a3.39,3.39,0,1,1-3.39,3.39A3.39,3.39,0,0,1,1022,287.1Z"/><path class="cls-3" d="M1022,250.23a3.39,3.39,0,1,1-3.39,3.39A3.39,3.39,0,0,1,1022,250.23Z"/><path class="cls-3" d="M1022,214.05a3.39,3.39,0,1,1-3.39,3.39A3.39,3.39,0,0,1,1022,214.05Z"/><path class="cls-3" d="M1022,176.72a3.39,3.39,0,1,1-3.39,3.39A3.39,3.39,0,0,1,1022,176.72Z"/><path class="cls-3" d="M1022,140.07a3.39,3.39,0,1,1-3.39,3.39A3.39,3.39,0,0,1,1022,140.07Z"/><path class="cls-3" d="M1022,103.21a3.39,3.39,0,1,1-3.39,3.38A3.38,3.38,0,0,1,1022,103.21Z"/><path class="cls-3" d="M1022,67a3.39,3.39,0,1,1-3.39,3.39A3.39,3.39,0,0,1,1022,67Z"/><path class="cls-3" d="M1022,29.69a3.39,3.39,0,1,1-3.39,3.39A3.39,3.39,0,0,1,1022,29.69Z"/><path class="cls-3" d="M1058.59,727.06a3.39,3.39,0,1,1-3.38,3.39A3.39,3.39,0,0,1,1058.59,727.06Z"/><path class="cls-3" d="M1058.59,763.53a3.39,3.39,0,1,1-3.38,3.39A3.39,3.39,0,0,1,1058.59,763.53Z"/><path class="cls-3" d="M1058.59,690.2a3.39,3.39,0,1,1-3.38,3.38A3.38,3.38,0,0,1,1058.59,690.2Z"/><path class="cls-3" d="M1058.59,654a3.39,3.39,0,1,1-3.38,3.39A3.39,3.39,0,0,1,1058.59,654Z"/><path class="cls-3" d="M1058.59,616.69a3.39,3.39,0,1,1-3.38,3.38A3.38,3.38,0,0,1,1058.59,616.69Z"/><path class="cls-3" d="M1058.59,580.31a3.39,3.39,0,1,1-3.38,3.39A3.39,3.39,0,0,1,1058.59,580.31Z"/><path class="cls-3" d="M1058.59,543.44a3.39,3.39,0,1,1-3.38,3.39A3.39,3.39,0,0,1,1058.59,543.44Z"/><path class="cls-3" d="M1058.59,507.26a3.39,3.39,0,1,1-3.38,3.38A3.38,3.38,0,0,1,1058.59,507.26Z"/><path class="cls-3" d="M1058.59,469.93a3.39,3.39,0,1,1-3.38,3.39A3.39,3.39,0,0,1,1058.59,469.93Z"/><path class="cls-3" d="M1058.59,433.51a3.39,3.39,0,1,1-3.38,3.39A3.39,3.39,0,0,1,1058.59,433.51Z"/><path class="cls-3" d="M1058.59,396.65a3.39,3.39,0,1,1-3.38,3.38A3.38,3.38,0,0,1,1058.59,396.65Z"/><path class="cls-3" d="M1058.59,360.46a3.39,3.39,0,1,1-3.38,3.39A3.39,3.39,0,0,1,1058.59,360.46Z"/><path class="cls-3" d="M1058.59,323.14a3.39,3.39,0,1,1-3.38,3.38A3.38,3.38,0,0,1,1058.59,323.14Z"/><path class="cls-3" d="M1058.59,287.1a3.39,3.39,0,1,1-3.38,3.39A3.39,3.39,0,0,1,1058.59,287.1Z"/><path class="cls-3" d="M1058.59,250.23a3.39,3.39,0,1,1-3.38,3.39A3.39,3.39,0,0,1,1058.59,250.23Z"/><path class="cls-3" d="M1058.59,214.05a3.39,3.39,0,1,1-3.38,3.39A3.39,3.39,0,0,1,1058.59,214.05Z"/><path class="cls-3" d="M1058.59,176.72a3.39,3.39,0,1,1-3.38,3.39A3.39,3.39,0,0,1,1058.59,176.72Z"/><path class="cls-3" d="M1058.59,140.07a3.39,3.39,0,1,1-3.38,3.39A3.39,3.39,0,0,1,1058.59,140.07Z"/><path class="cls-3" d="M1058.59,103.21a3.39,3.39,0,1,1-3.38,3.38A3.38,3.38,0,0,1,1058.59,103.21Z"/><path class="cls-3" d="M1058.59,67a3.39,3.39,0,1,1-3.38,3.39A3.39,3.39,0,0,1,1058.59,67Z"/><path class="cls-3" d="M1058.59,29.69a3.39,3.39,0,1,1-3.38,3.39A3.39,3.39,0,0,1,1058.59,29.69Z"/><path class="cls-3" d="M1095.71,727.06a3.39,3.39,0,1,1-3.39,3.39A3.38,3.38,0,0,1,1095.71,727.06Z"/><path class="cls-3" d="M1095.71,763.53a3.39,3.39,0,1,1-3.39,3.39A3.38,3.38,0,0,1,1095.71,763.53Z"/><path class="cls-3" d="M1095.71,690.2a3.39,3.39,0,1,1-3.39,3.38A3.38,3.38,0,0,1,1095.71,690.2Z"/><path class="cls-3" d="M1095.71,654a3.39,3.39,0,1,1-3.39,3.39A3.38,3.38,0,0,1,1095.71,654Z"/><path class="cls-3" d="M1095.71,616.69a3.39,3.39,0,1,1-3.39,3.38A3.38,3.38,0,0,1,1095.71,616.69Z"/><path class="cls-3" d="M1095.71,580.31a3.39,3.39,0,1,1-3.39,3.39A3.38,3.38,0,0,1,1095.71,580.31Z"/><path class="cls-3" d="M1095.71,543.44a3.39,3.39,0,1,1-3.39,3.39A3.38,3.38,0,0,1,1095.71,543.44Z"/><path class="cls-3" d="M1095.71,507.26a3.39,3.39,0,1,1-3.39,3.38A3.38,3.38,0,0,1,1095.71,507.26Z"/><path class="cls-3" d="M1095.71,469.93a3.39,3.39,0,1,1-3.39,3.39A3.38,3.38,0,0,1,1095.71,469.93Z"/><path class="cls-3" d="M1095.71,433.51a3.39,3.39,0,1,1-3.39,3.39A3.38,3.38,0,0,1,1095.71,433.51Z"/><path class="cls-3" d="M1095.71,396.65a3.39,3.39,0,1,1-3.39,3.38A3.38,3.38,0,0,1,1095.71,396.65Z"/><path class="cls-3" d="M1095.71,360.46a3.39,3.39,0,1,1-3.39,3.39A3.38,3.38,0,0,1,1095.71,360.46Z"/><path class="cls-3" d="M1095.71,323.14a3.39,3.39,0,1,1-3.39,3.38A3.38,3.38,0,0,1,1095.71,323.14Z"/><path class="cls-3" d="M1095.71,287.1a3.39,3.39,0,1,1-3.39,3.39A3.38,3.38,0,0,1,1095.71,287.1Z"/><path class="cls-3" d="M1095.71,250.23a3.39,3.39,0,1,1-3.39,3.39A3.38,3.38,0,0,1,1095.71,250.23Z"/><path class="cls-3" d="M1095.71,214.05a3.39,3.39,0,1,1-3.39,3.39A3.38,3.38,0,0,1,1095.71,214.05Z"/><path class="cls-3" d="M1095.71,176.72a3.39,3.39,0,1,1-3.39,3.39A3.38,3.38,0,0,1,1095.71,176.72Z"/><path class="cls-3" d="M1095.71,140.07a3.39,3.39,0,1,1-3.39,3.39A3.38,3.38,0,0,1,1095.71,140.07Z"/><path class="cls-3" d="M1095.71,103.21a3.39,3.39,0,1,1-3.39,3.38A3.38,3.38,0,0,1,1095.71,103.21Z"/><path class="cls-3" d="M1095.71,67a3.39,3.39,0,1,1-3.39,3.39A3.38,3.38,0,0,1,1095.71,67Z"/><path class="cls-3" d="M1095.71,29.69a3.39,3.39,0,1,1-3.39,3.39A3.38,3.38,0,0,1,1095.71,29.69Z"/><path class="cls-3" d="M1132.37,727.06a3.39,3.39,0,1,1-3.38,3.39A3.39,3.39,0,0,1,1132.37,727.06Z"/><path class="cls-3" d="M1132.37,763.53a3.39,3.39,0,1,1-3.38,3.39A3.39,3.39,0,0,1,1132.37,763.53Z"/><path class="cls-3" d="M1132.37,690.2a3.39,3.39,0,1,1-3.38,3.38A3.38,3.38,0,0,1,1132.37,690.2Z"/><path class="cls-3" d="M1132.37,654a3.39,3.39,0,1,1-3.38,3.39A3.39,3.39,0,0,1,1132.37,654Z"/><path class="cls-3" d="M1132.37,616.69a3.39,3.39,0,1,1-3.38,3.38A3.38,3.38,0,0,1,1132.37,616.69Z"/><path class="cls-3" d="M1132.37,580.31a3.39,3.39,0,1,1-3.38,3.39A3.39,3.39,0,0,1,1132.37,580.31Z"/><path class="cls-3" d="M1132.37,543.44a3.39,3.39,0,1,1-3.38,3.39A3.39,3.39,0,0,1,1132.37,543.44Z"/><path class="cls-3" d="M1132.37,507.26a3.39,3.39,0,1,1-3.38,3.38A3.38,3.38,0,0,1,1132.37,507.26Z"/><path class="cls-3" d="M1132.37,469.93a3.39,3.39,0,1,1-3.38,3.39A3.39,3.39,0,0,1,1132.37,469.93Z"/><path class="cls-3" d="M1132.37,433.51a3.39,3.39,0,1,1-3.38,3.39A3.39,3.39,0,0,1,1132.37,433.51Z"/><path class="cls-3" d="M1132.37,396.65A3.39,3.39,0,1,1,1129,400,3.38,3.38,0,0,1,1132.37,396.65Z"/><path class="cls-3" d="M1132.37,360.46a3.39,3.39,0,1,1-3.38,3.39A3.39,3.39,0,0,1,1132.37,360.46Z"/><path class="cls-3" d="M1132.37,323.14a3.39,3.39,0,1,1-3.38,3.38A3.38,3.38,0,0,1,1132.37,323.14Z"/><path class="cls-3" d="M1132.37,287.1a3.39,3.39,0,1,1-3.38,3.39A3.39,3.39,0,0,1,1132.37,287.1Z"/><path class="cls-3" d="M1132.37,250.23a3.39,3.39,0,1,1-3.38,3.39A3.39,3.39,0,0,1,1132.37,250.23Z"/><path class="cls-3" d="M1132.37,214.05a3.39,3.39,0,1,1-3.38,3.39A3.39,3.39,0,0,1,1132.37,214.05Z"/><path class="cls-3" d="M1132.37,176.72a3.39,3.39,0,1,1-3.38,3.39A3.39,3.39,0,0,1,1132.37,176.72Z"/><path class="cls-3" d="M1132.37,140.07a3.39,3.39,0,1,1-3.38,3.39A3.39,3.39,0,0,1,1132.37,140.07Z"/><path class="cls-3" d="M1132.37,103.21a3.39,3.39,0,1,1-3.38,3.38A3.38,3.38,0,0,1,1132.37,103.21Z"/><path class="cls-3" d="M1132.37,67a3.39,3.39,0,1,1-3.38,3.39A3.39,3.39,0,0,1,1132.37,67Z"/><path class="cls-3" d="M1132.37,29.69a3.39,3.39,0,1,1-3.38,3.39A3.39,3.39,0,0,1,1132.37,29.69Z"/><path class="cls-3" d="M1169,727.06a3.39,3.39,0,1,1-3.39,3.39A3.39,3.39,0,0,1,1169,727.06Z"/><path class="cls-3" d="M1169,763.53a3.39,3.39,0,1,1-3.39,3.39A3.39,3.39,0,0,1,1169,763.53Z"/><path class="cls-3" d="M1169,690.2a3.39,3.39,0,1,1-3.39,3.38A3.38,3.38,0,0,1,1169,690.2Z"/><path class="cls-3" d="M1169,654a3.39,3.39,0,1,1-3.39,3.39A3.39,3.39,0,0,1,1169,654Z"/><path class="cls-3" d="M1169,616.69a3.39,3.39,0,1,1-3.39,3.38A3.38,3.38,0,0,1,1169,616.69Z"/><path class="cls-3" d="M1169,580.31a3.39,3.39,0,1,1-3.39,3.39A3.39,3.39,0,0,1,1169,580.31Z"/><path class="cls-3" d="M1169,543.44a3.39,3.39,0,1,1-3.39,3.39A3.39,3.39,0,0,1,1169,543.44Z"/><path class="cls-3" d="M1169,507.26a3.39,3.39,0,1,1-3.39,3.38A3.38,3.38,0,0,1,1169,507.26Z"/><path class="cls-3" d="M1169,469.93a3.39,3.39,0,1,1-3.39,3.39A3.39,3.39,0,0,1,1169,469.93Z"/><path class="cls-3" d="M1169,433.51a3.39,3.39,0,1,1-3.39,3.39A3.39,3.39,0,0,1,1169,433.51Z"/><path class="cls-3" d="M1169,396.65a3.39,3.39,0,1,1-3.39,3.38A3.38,3.38,0,0,1,1169,396.65Z"/><path class="cls-3" d="M1169,360.46a3.39,3.39,0,1,1-3.39,3.39A3.39,3.39,0,0,1,1169,360.46Z"/><path class="cls-3" d="M1169,323.14a3.39,3.39,0,1,1-3.39,3.38A3.38,3.38,0,0,1,1169,323.14Z"/><path class="cls-3" d="M1169,287.1a3.39,3.39,0,1,1-3.39,3.39A3.39,3.39,0,0,1,1169,287.1Z"/><path class="cls-3" d="M1169,250.23a3.39,3.39,0,1,1-3.39,3.39A3.39,3.39,0,0,1,1169,250.23Z"/><path class="cls-3" d="M1169,214.05a3.39,3.39,0,1,1-3.39,3.39A3.39,3.39,0,0,1,1169,214.05Z"/><path class="cls-3" d="M1169,176.72a3.39,3.39,0,1,1-3.39,3.39A3.39,3.39,0,0,1,1169,176.72Z"/><path class="cls-3" d="M1169,140.07a3.39,3.39,0,1,1-3.39,3.39A3.39,3.39,0,0,1,1169,140.07Z"/><path class="cls-3" d="M1169,103.21a3.39,3.39,0,1,1-3.39,3.38A3.38,3.38,0,0,1,1169,103.21Z"/><path class="cls-3" d="M1169,67a3.39,3.39,0,1,1-3.39,3.39A3.39,3.39,0,0,1,1169,67Z"/><path class="cls-3" d="M1169,29.69a3.39,3.39,0,1,1-3.39,3.39A3.39,3.39,0,0,1,1169,29.69Z"/></g></g></g></svg>